<?xml version="1.0" standalone="no"?>
<!DOCTYPE svg PUBLIC "-//W3C//DTD SVG 1.1//EN" "http://www.w3.org/Graphics/SVG/1.1/DTD/svg11.dtd" >
<svg xmlns="http://www.w3.org/2000/svg" xmlns:xlink="http://www.w3.org/1999/xlink" version="1.1">
<metadata>
Created by FontForge 20170910 at Mon May 14 17:39:38 2018
 By Jimmy Wärting
Copyright (c) 2015, HATSUMATSU
</metadata>
<defs>
<font id="LabMono-Regular" horiz-adv-x="640" >
  <font-face 
    font-family="Lab Mono"
    font-weight="400"
    font-stretch="normal"
    units-per-em="1000"
    panose-1="2 0 5 3 0 0 0 0 0 0"
    ascent="800"
    descent="-200"
    x-height="525"
    cap-height="705"
    bbox="-97 -340 1230 1020"
    underline-thickness="50"
    underline-position="-100"
    stemh="80"
    stemv="85"
    unicode-range="U+0020-1F60A"
  />
<missing-glyph horiz-adv-x="500" 
d="M50 0v533h400v-533h-400zM100 50h300v433h-300v-433z" />
    <glyph glyph-name="slash_slash" unicode="&#x2f;&#x2f;" 
d="M-97 -50l470 825h92l-470 -825h-92zM175 -50l470 825h92l-470 -825h-92z" />
    <glyph glyph-name="colon_slash_slash" unicode="&#x3a;&#x2f;&#x2f;" horiz-adv-x="1280" 
d="M102 440c0 47 37 85 84 85s86 -38 86 -85s-39 -85 -86 -85s-84 38 -84 85zM102 80c0 47 37 85 84 85s86 -38 86 -85s-39 -85 -86 -85s-84 38 -84 85zM350 -50l470 825h92l-470 -825h-92zM622 -50l470 825h92l-470 -825h-92z" />
    <glyph glyph-name=".notdef" horiz-adv-x="500" 
d="M50 0v533h400v-533h-400zM100 50h300v433h-300v-433z" />
    <glyph glyph-name="space" unicode=" " 
 />
    <glyph glyph-name="exclam" unicode="!" 
d="M243 73c0 43 34 78 77 78s77 -35 77 -78s-34 -78 -77 -78s-77 35 -77 78zM379 688c0 -100 -15 -292 -24 -422h-70c-9 130 -24 322 -24 422c0 53 14 87 59 87s59 -34 59 -87z" />
    <glyph glyph-name="quotedbl" unicode="&#x22;" 
d="M492 734c0 -50 -17 -159 -31 -229h-60c-14 70 -31 179 -31 229c0 30 17 66 61 66s61 -36 61 -66zM270 734c0 -50 -17 -159 -31 -229h-60c-14 70 -31 179 -31 229c0 30 17 66 61 66s61 -36 61 -66z" />
    <glyph glyph-name="numbersign" unicode="#" 
d="M385 285v140h-130v-140h130zM40 285h140v140h-140v70h140v140h75v-140h130v140h75v-140h140v-70h-140v-140h140v-70h-140v-140h-75v140h-130v-140h-75v140h-140v70z" />
    <glyph glyph-name="dollar" unicode="$" 
d="M82 114l71 41c30 -44 89 -80 157 -80c98 0 152 56 152 120c0 36 -12 77 -73 105l-138 62c-66 30 -134 85 -134 177c0 94 67 156 167 170v133h80v-132c87 -12 142 -65 156 -83l-56 -54c-18 18 -68 57 -134 57s-125 -30 -125 -91c0 -46 36 -79 80 -100l132 -62
c96 -45 133 -108 133 -182c0 -104 -71 -180 -186 -198v-124h-80v121c-88 8 -168 54 -202 120z" />
    <glyph glyph-name="percent" unicode="%" 
d="M364 142c0 -44 30 -80 74 -80s80 36 80 80s-33 80 -77 80s-77 -36 -77 -80zM292 142c0 82 67 149 149 149s149 -67 149 -149s-67 -149 -149 -149s-149 67 -149 149zM122 561c0 -44 30 -80 74 -80s80 36 80 80s-33 80 -77 80s-77 -36 -77 -80zM148 185l-37 51l383 283
l38 -50zM50 561c0 82 67 149 149 149s149 -67 149 -149s-67 -149 -149 -149s-149 67 -149 149z" />
    <glyph glyph-name="ampersand" unicode="&#x26;" 
d="M387 140l-108 144c-68 -2 -102 -57 -102 -109c0 -50 53 -100 99 -100c54 0 82 26 111 65zM470 507l-1 -20h-79v21c0 40 -26 72 -70 72s-70 -33 -70 -73c0 -60 57 -132 76 -157l107 -142c31 47 80 120 80 120l61 -39l-90 -149l105 -140h-97l-54 71
c-40 -48 -88 -76 -158 -76c-101 0 -183 80 -183 180c0 78 43 157 129 181c-29 42 -56 93 -56 151c0 73 51 148 150 148c84 0 150 -52 150 -148z" />
    <glyph glyph-name="quotesingle" unicode="'" 
d="M381 734c0 -50 -17 -159 -31 -229h-60c-14 70 -31 179 -31 229c0 30 17 66 61 66s61 -36 61 -66z" />
    <glyph glyph-name="parenleft" unicode="(" 
d="M310 352c0 -126 40 -273 188 -392l-49 -64c-172 126 -229 304 -229 456s57 330 229 456l49 -64c-148 -119 -188 -266 -188 -392z" />
    <glyph glyph-name="parenright" unicode=")" 
d="M330 352c0 126 -40 273 -188 392l49 64c172 -126 229 -304 229 -456s-57 -330 -229 -456l-49 64c148 119 188 266 188 392z" />
    <glyph glyph-name="asterisk" unicode="*" 
d="M294 614l2 2c-11 57 -25 135 -25 174c0 24 13 54 49 54s49 -30 49 -54c0 -40 -14 -118 -25 -175l2 -1c50 28 120 65 159 78c6 2 13 3 20 3c19 0 38 -9 46 -34c2 -6 3 -12 3 -17c0 -24 -19 -39 -38 -46c-38 -13 -118 -24 -175 -31v-2c43 -39 99 -94 123 -127
c7 -10 12 -22 12 -34c0 -13 -6 -27 -21 -38c-10 -7 -20 -10 -29 -10c-18 0 -33 11 -42 24c-24 32 -59 102 -83 155h-2c-24 -53 -59 -123 -83 -155c-9 -13 -24 -24 -42 -24c-9 0 -19 3 -29 10c-15 11 -21 25 -21 38c0 12 5 24 12 34c24 33 80 88 123 127v2
c-57 7 -137 18 -175 31c-19 7 -38 22 -38 46c0 5 1 11 3 17c8 25 27 34 46 34c7 0 14 -1 20 -3c38 -13 109 -50 159 -78z" />
    <glyph glyph-name="plus" unicode="+" 
d="M280 368v152h80v-152h150v-76h-150v-152h-80v152h-150v76h150z" />
    <glyph glyph-name="comma" unicode="," 
d="M323 5c-56 0 -88 38 -88 79c0 40 33 81 85 81c61 0 93 -51 93 -122c0 -125 -101 -207 -161 -241l-34 52c45 30 97 91 105 151z" />
    <glyph glyph-name="hyphen" unicode="-" 
d="M140 370h360v-80h-360v80z" />
    <glyph glyph-name="period" unicode="." 
d="M235 80c0 47 38 85 85 85s85 -38 85 -85s-38 -85 -85 -85s-85 38 -85 85z" />
    <glyph glyph-name="slash" unicode="/" 
d="M40 -50l470 825h92l-470 -825h-92z" />
    <glyph glyph-name="zero" unicode="0" 
d="M186 165c31 -57 79 -88 134 -88c100 0 174 102 174 276c0 41 -4 78 -12 110zM158 241l297 298c-31 58 -79 89 -135 89c-100 0 -174 -101 -174 -275c0 -42 4 -79 12 -112zM59 353c0 200 97 357 261 357s261 -157 261 -357s-97 -358 -261 -358s-261 158 -261 358z" />
    <glyph glyph-name="one" unicode="1" 
d="M125 0v75h190v528h-7l-135 -91l-44 62l193 131h78v-102v-528h175v-75h-450z" />
    <glyph glyph-name="two" unicode="2" 
d="M105 571c30 80 93 139 199 139c123 0 205 -84 205 -200c0 -81 -43 -146 -89 -198l-204 -232v-5h322v-75h-434v71l252 294c32 37 68 86 68 145c0 76 -52 120 -120 120c-64 0 -102 -35 -124 -80z" />
    <glyph glyph-name="three" unicode="3" 
d="M162 184c10 -36 48 -109 143 -109c76 0 144 57 144 133c0 82 -71 140 -173 140v6v57v6c86 0 139 47 139 110c0 62 -52 103 -110 103c-70 0 -99 -51 -108 -82l-78 17c12 68 71 147 186 147c105 0 197 -78 197 -185c0 -63 -32 -112 -80 -141c67 -32 114 -93 114 -178
c0 -130 -109 -215 -231 -215s-207 78 -220 173z" />
    <glyph glyph-name="four" unicode="4" 
d="M448 245h100v-76h-100v-169h-85v169h-299v62l309 474h75v-460zM363 245v301h-5l-191 -301h196z" />
    <glyph glyph-name="five" unicode="5" 
d="M170 161c27 -38 62 -88 145 -88c89 0 146 68 146 151s-56 151 -146 151c-58 0 -99 -27 -116 -51l-62 12l38 369h28h51h241v-80h-250l-20 -192c24 13 53 22 90 22c138 0 231 -99 231 -231c0 -128 -93 -231 -231 -231c-128 0 -186 82 -208 130z" />
    <glyph glyph-name="six" unicode="6" 
d="M282 447c12 2 25 3 38 3c128 0 231 -100 231 -226c0 -128 -103 -231 -231 -231s-231 103 -231 231c0 72 28 122 57 167l209 324h92zM174 224c0 -83 63 -151 146 -151s146 68 146 151s-63 151 -146 151s-146 -68 -146 -151z" />
    <glyph glyph-name="seven" unicode="7" 
d="M438 625h-332v80h407h7h16v-70l-278 -635h-93l273 620v5z" />
    <glyph glyph-name="eight" unicode="8" 
d="M176 208c0 -76 68 -133 144 -133s144 57 144 133s-68 133 -144 133s-144 -57 -144 -133zM210 527c0 -62 52 -103 110 -103s110 41 110 103s-52 103 -110 103s-110 -41 -110 -103zM123 527c0 107 92 185 197 185s197 -78 197 -185c0 -63 -32 -112 -80 -141
c67 -32 114 -93 114 -178c0 -130 -109 -215 -231 -215s-231 85 -231 215c0 85 47 146 114 178c-48 29 -80 78 -80 141z" />
    <glyph glyph-name="nine" unicode="9" 
d="M370 269c-15 -3 -30 -4 -45 -4c-128 0 -231 100 -231 226c0 128 103 231 231 231s231 -103 231 -231c0 -73 -27 -128 -56 -174l-201 -317h-101zM471 491c0 83 -63 151 -146 151s-146 -68 -146 -151s63 -151 146 -151s146 68 146 151z" />
    <glyph glyph-name="colon" unicode=":" 
d="M235 440c0 47 38 85 85 85s85 -38 85 -85s-38 -85 -85 -85s-85 38 -85 85zM235 80c0 47 38 85 85 85s85 -38 85 -85s-38 -85 -85 -85s-85 38 -85 85z" />
    <glyph glyph-name="semicolon" unicode=";" 
d="M323 5c-56 0 -88 38 -88 79c0 40 33 81 85 81c61 0 93 -51 93 -122c0 -125 -101 -207 -161 -241l-34 52c45 30 97 91 105 151zM235 440c0 47 38 85 85 85s85 -38 85 -85s-38 -85 -85 -85s-85 38 -85 85z" />
    <glyph glyph-name="less" unicode="&#x3c;" 
d="M104 397l391 255v-101l-298 -190v-3v-3l298 -190v-101l-391 255v39v39z" />
    <glyph glyph-name="equal" unicode="=" 
d="M130 453h380v-76h-380v76zM130 283h380v-76h-380v76z" />
    <glyph glyph-name="greater" unicode="&#x3e;" 
d="M536 397v-39v-39l-391 -255v101l298 190v3v3l-298 190v101z" />
    <glyph glyph-name="question" unicode="?" 
d="M223 73c0 43 34 78 77 78s77 -35 77 -78s-34 -78 -77 -78s-77 35 -77 78zM313 432l59 60c28 28 52 61 52 106c0 64 -53 97 -115 97c-51 0 -83 -28 -108 -80l-69 28c27 85 95 132 177 132c119 0 200 -75 200 -177c0 -81 -47 -123 -82 -162l-52 -57
c-28 -31 -38 -48 -38 -106v-23h-82v21c0 79 15 117 58 161z" />
    <glyph glyph-name="at" unicode="@" 
d="M493 393h-74c-78 0 -114 -37 -114 -95c0 -67 32 -108 91 -108c58 0 97 34 97 118v85zM570 450v-325h-54l-7 52c-22 -33 -59 -59 -113 -59c-100 0 -166 72 -166 180c0 97 59 163 189 163h77c-4 81 -54 136 -135 136c-120 0 -205 -90 -205 -296s84 -312 204 -312
c81 0 111 32 141 61l48 -43c-45 -61 -105 -98 -189 -98c-198 0 -288 166 -288 392s90 377 288 377c122 0 210 -88 210 -228z" />
    <glyph glyph-name="A" unicode="A" 
d="M320 624l-111 -354h222zM607 0h-91l-60 190h-272l-60 -190h-91l233 705h28h51h29z" />
    <glyph glyph-name="B" unicode="B" 
d="M185 335v-255h160c97 0 140 50 140 128c0 75 -45 127 -140 127h-160zM185 625v-220h110c95 0 140 39 140 110c0 73 -45 110 -140 110h-110zM100 0v705h85h110c135 0 225 -63 225 -190c0 -61 -28 -106 -74 -134c79 -25 124 -83 124 -173c0 -131 -87 -208 -225 -208h-160
h-85z" />
    <glyph glyph-name="C" unicode="C" 
d="M461 537c-11 25 -49 92 -136 92c-110 0 -180 -101 -180 -276s70 -277 180 -277c87 0 125 68 136 92l80 -33c-36 -82 -107 -140 -216 -140c-185 0 -270 158 -270 358s85 357 270 357c109 0 180 -58 216 -140z" />
    <glyph glyph-name="D" unicode="D" 
d="M178 80h75c142 0 235 100 235 270c0 169 -85 275 -235 275h-75v-545zM93 705h85h75c215 0 320 -138 320 -355c0 -210 -110 -350 -320 -350h-75h-85v705z" />
    <glyph glyph-name="E" unicode="E" 
d="M127 0v705h85h310v-82h-310v-224h280v-82h-280v-235h310v-82h-310h-85z" />
    <glyph glyph-name="F" unicode="F" 
d="M145 0v705h85h310v-82h-310v-234h280v-82h-280v-307h-85z" />
    <glyph glyph-name="G" unicode="G" 
d="M461 537c-11 25 -49 92 -136 92c-110 0 -180 -101 -180 -276s70 -277 180 -277c130 0 166 124 166 207v7h-185v80h274v-37c0 -145 -43 -338 -255 -338c-185 0 -270 158 -270 358s85 357 270 357c109 0 180 -58 216 -140z" />
    <glyph glyph-name="H" unicode="H" 
d="M85 0v705h85v-306h300v306h85v-705h-85v317h-300v-317h-85z" />
    <glyph glyph-name="I" unicode="I" 
d="M100 635v70h440v-70h-176v-565h176v-70h-440v70h176v565h-176z" />
    <glyph glyph-name="J" unicode="J" 
d="M104 118l63 43c22 -33 63 -86 135 -86c96 0 135 65 135 195v435h85v-435c0 -171 -61 -275 -220 -275c-114 0 -179 76 -198 123z" />
    <glyph glyph-name="K" unicode="K" 
d="M125 705h85v-316l278 316h102l-255 -293l278 -412h-99l-234 349l-70 -81v-268h-85v705z" />
    <glyph glyph-name="L" unicode="L" 
d="M159 0v705h85v-623h310v-82h-310h-85z" />
    <glyph glyph-name="M" unicode="M" 
d="M281 270l-106 250h-5v-520h-85v520v185h85l147 -349h3h3l147 349h85v-185v-520h-85v520h-5l-106 -250h-39h-39z" />
    <glyph glyph-name="N" unicode="N" 
d="M470 0l-295 540h-5v-540h-85v540v165h85l295 -540h5v540h85v-540v-165h-85z" />
    <glyph glyph-name="O" unicode="O" 
d="M140 353c0 -175 70 -277 180 -277s180 102 180 277s-70 276 -180 276s-180 -101 -180 -276zM50 353c0 200 85 357 270 357s270 -157 270 -357s-85 -358 -270 -358s-270 158 -270 358z" />
    <glyph glyph-name="P" unicode="P" 
d="M200 625v-260h156c90 0 144 50 144 130s-54 130 -144 130h-156zM115 0v705h85h155c140 0 230 -80 230 -210s-90 -210 -230 -210h-155v-285h-85z" />
    <glyph glyph-name="Q" unicode="Q" 
d="M140 353c0 -175 70 -277 180 -277c43 0 80 16 109 45l-150 197h103l93 -123c16 42 25 96 25 158c0 175 -70 276 -180 276s-180 -101 -180 -276zM50 353c0 200 85 357 270 357s270 -157 270 -357c0 -92 -18 -174 -55 -237l88 -116h-103l-39 51c-41 -35 -94 -56 -161 -56
c-185 0 -270 158 -270 358z" />
    <glyph glyph-name="R" unicode="R" 
d="M188 625v-240h130c95 0 140 45 140 120s-45 120 -140 120h-130zM103 0v705h85h130c135 0 225 -73 225 -200c0 -100 -58 -169 -151 -192l186 -313h-96l-177 305h-117v-305h-85z" />
    <glyph glyph-name="S" unicode="S" 
d="M82 114l71 41c30 -44 89 -80 157 -80c98 0 152 56 152 120c0 36 -12 77 -73 105l-138 62c-66 30 -134 85 -134 177c0 108 88 173 213 173c106 0 174 -65 190 -85l-56 -54c-18 18 -68 57 -134 57s-125 -30 -125 -91c0 -46 36 -79 80 -100l132 -62
c96 -45 133 -108 133 -182c0 -120 -94 -202 -240 -202c-98 0 -191 49 -228 121z" />
    <glyph glyph-name="T" unicode="T" 
d="M70 625v80h500v-80h-208v-625h-84v625h-208z" />
    <glyph glyph-name="U" unicode="U" 
d="M90 270v435h85v-435c0 -134 50 -195 145 -195s145 60 145 195v435h85v-435c0 -187 -79 -275 -230 -275s-230 88 -230 275z" />
    <glyph glyph-name="V" unicode="V" 
d="M320 101h2l184 604h91l-220 -705h-57h-57l-220 705h91l184 -604h2z" />
    <glyph glyph-name="W" unicode="W" 
d="M190 0h-59l-105 705h86l76 -570h2h3l90 340h37h37l90 -340h3h2l76 570h86l-105 -705h-59h-37l-90 322h-3h-3l-90 -322h-37z" />
    <glyph glyph-name="X" unicode="X" 
d="M79 705h96l145 -290l146 290h96l-188 -354l196 -351h-98l-152 287l-151 -287h-98l196 351z" />
    <glyph glyph-name="Y" unicode="Y" 
d="M320 375h2l177 330h93l-230 -423v-282h-84v282l-230 423h93l177 -330h2z" />
    <glyph glyph-name="Z" unicode="Z" 
d="M527 0h-414v70l308 550v5h-303v80h404v-72l-308 -548v-5h313v-80z" />
    <glyph glyph-name="bracketleft" unicode="[" 
d="M210 805h240v-75h-160v-755h160v-75h-240v75v755v75z" />
    <glyph glyph-name="backslash" unicode="\" 
d="M602 -50h-92l-470 825h92z" />
    <glyph glyph-name="bracketright" unicode="]" 
d="M430 805v-75v-755v-75h-240v75h160v755h-160v75h240z" />
    <glyph glyph-name="asciicircum" unicode="^" 
d="M115 415l145 340h32h56h32l145 -340h-84l-121 276l-121 -276h-84z" />
    <glyph glyph-name="underscore" unicode="_" 
d="M60 -80h520v-80h-520v80z" />
    <glyph glyph-name="grave" unicode="`" 
d="M356 605h-97l-123 150h105z" />
    <glyph glyph-name="a" unicode="a" 
d="M453 217v33h-95h-98c-67 0 -92 -38 -92 -85s42 -95 120 -95c103 0 165 68 165 147zM452 321c-5 67 -35 129 -134 129c-81 0 -122 -40 -144 -58l-49 51c19 20 85 87 193 87c181 0 215 -122 215 -230v-300h-70l-10 84c-27 -49 -93 -89 -165 -89c-114 0 -200 62 -200 170
c0 105 71 156 172 156h90h102z" />
    <glyph glyph-name="b" unicode="b" 
d="M170 263c0 -110 60 -188 155 -188c103 0 165 73 165 188s-62 187 -165 187c-95 0 -155 -77 -155 -187zM95 755h85v-305c31 47 81 80 160 80c145 0 235 -102 235 -267s-87 -268 -235 -268c-79 0 -129 32 -160 80l-10 -75h-75v755z" />
    <glyph glyph-name="c" unicode="c" 
d="M170 262c0 -115 66 -187 164 -187c74 0 110 33 143 73l59 -38c-26 -41 -91 -115 -202 -115c-145 0 -251 102 -251 267s106 267 251 267c111 0 176 -74 202 -115l-59 -38c-33 40 -69 73 -143 73c-98 0 -164 -72 -164 -187z" />
    <glyph glyph-name="d" unicode="d" 
d="M470 263c0 110 -60 187 -155 187c-103 0 -165 -72 -165 -187s62 -188 165 -188c95 0 155 78 155 188zM545 755v-755h-75l-10 75c-31 -48 -81 -80 -160 -80c-148 0 -235 103 -235 268s90 267 235 267c79 0 129 -33 160 -80v305h85z" />
    <glyph glyph-name="e" unicode="e" 
d="M165 311h312c0 75 -55 140 -149 140c-106 0 -163 -81 -163 -140zM159 239c0 -71 54 -166 170 -166c66 0 124 34 160 85l61 -38c-38 -71 -122 -125 -221 -125c-151 0 -251 97 -251 267c0 165 108 268 255 268c141 0 224 -106 224 -246c0 -33 -4 -45 -4 -45h-394z" />
    <glyph glyph-name="f" unicode="f" 
d="M228 435h-133v70h133v33c0 138 68 217 200 217c90 0 144 -55 158 -70l-47 -47c-19 15 -52 40 -111 40c-78 0 -115 -48 -115 -140v-33h235v-70h-235v-435h-85v435z" />
    <glyph glyph-name="g" unicode="g" 
d="M247 42h-13c-42 0 -69 -32 -69 -75c0 -55 69 -93 160 -93c107 0 173 50 173 104c0 40 -26 64 -82 64h-169zM215 360c0 -60 51 -95 110 -95s110 35 110 95s-51 95 -110 95s-110 -35 -110 -95zM138 360c0 104 85 170 187 170c46 0 89 -14 122 -38l75 54l41 -56l-69 -51
c12 -23 18 -49 18 -79c0 -104 -85 -170 -187 -170c-28 0 -55 5 -79 14l-12 -6c-21 -11 -29 -24 -29 -43c0 -22 17 -38 42 -38h169c106 0 160 -52 160 -140c0 -107 -111 -178 -251 -178c-156 0 -238 68 -238 168c0 57 26 94 60 117c-13 18 -19 41 -19 70c0 43 23 75 53 93
c-27 29 -43 67 -43 113z" />
    <glyph glyph-name="h" unicode="h" 
d="M115 755h85v-317c17 43 59 92 150 92c173 0 185 -139 185 -201v-329h-85v329c0 61 -27 121 -110 121c-104 0 -140 -85 -140 -180v-270h-85v755z" />
    <glyph glyph-name="i" unicode="i" 
d="M242 703c0 44 34 80 78 80s80 -36 80 -80s-36 -78 -80 -78s-78 34 -78 78zM93 0v70h207v385h-140v70h220v-70v-385h187v-70h-474z" />
    <glyph glyph-name="j" unicode="j" 
d="M287 703c0 44 34 80 78 80s80 -36 80 -80s-36 -78 -80 -78s-78 34 -78 78zM185 455v70h250v-70v-385v-57c0 -141 -65 -217 -200 -217c-70 0 -141 47 -171 99l54 36c22 -26 55 -60 117 -60c78 0 120 50 120 142v57v385h-170z" />
    <glyph glyph-name="k" unicode="k" 
d="M136 755h85v-472l233 242h110l-207 -212l227 -313h-103l-181 255l-79 -81v-174h-85v755z" />
    <glyph glyph-name="l" unicode="l" 
d="M193 755h85v-537c0 -89 31 -144 112 -144c66 0 91 27 121 63l55 -40c-35 -59 -104 -102 -174 -102c-118 0 -199 59 -199 223v467h-135v70h135z" />
    <glyph glyph-name="m" unicode="m" 
d="M79 525h71l9 -77c13 41 41 82 99 82c56 0 82 -35 94 -81c14 41 46 81 103 81c91 0 106 -79 106 -154v-376h-81v376c0 58 -12 84 -45 84c-58 0 -75 -85 -75 -180v-280h-80v376c0 58 -9 84 -42 84c-58 0 -78 -85 -78 -180v-280h-81v525z" />
    <glyph glyph-name="n" unicode="n" 
d="M115 525h75l10 -87c17 43 58 92 150 92c173 0 185 -139 185 -201v-329h-85v329c0 61 -27 121 -110 121c-104 0 -140 -85 -140 -180v-270h-85v525z" />
    <glyph glyph-name="o" unicode="o" 
d="M155 262c0 -115 67 -187 165 -187s165 72 165 187s-67 188 -165 188s-165 -73 -165 -188zM70 262c0 165 105 268 250 268s250 -103 250 -268s-105 -267 -250 -267s-250 102 -250 267z" />
    <glyph glyph-name="p" unicode="p" 
d="M170 262c0 -110 60 -187 155 -187c103 0 165 72 165 187s-62 188 -165 188c-95 0 -155 -78 -155 -188zM95 -200v725h75l10 -75c31 48 81 80 160 80c148 0 235 -103 235 -268s-90 -267 -235 -267c-79 0 -129 33 -160 80v-275h-85z" />
    <glyph glyph-name="q" unicode="q" 
d="M470 262c0 110 -60 188 -155 188c-103 0 -165 -73 -165 -188s62 -187 165 -187c95 0 155 77 155 187zM545 -200h-85v275c-31 -47 -81 -80 -160 -80c-145 0 -235 102 -235 267s87 268 235 268c79 0 129 -32 160 -80l10 75h75v-725z" />
    <glyph glyph-name="r" unicode="r" 
d="M153 525h75l10 -120c27 70 91 127 169 127c82 0 148 -31 183 -105l-83 -40c-11 21 -33 66 -100 66c-89 0 -169 -85 -169 -222v-231h-85v525z" />
    <glyph glyph-name="s" unicode="s" 
d="M279 318l84 -20c133 -32 183 -64 183 -148c0 -97 -95 -155 -226 -155c-130 0 -210 78 -227 106l60 49c24 -32 87 -75 167 -75c85 0 142 28 142 75c0 38 -36 56 -113 74c0 0 -46 11 -75 17c-115 30 -157 73 -157 141c0 84 68 148 203 148c94 0 162 -43 188 -69l-50 -55
c-25 21 -78 45 -138 45c-85 0 -119 -26 -119 -69c0 -30 35 -54 78 -64z" />
    <glyph glyph-name="t" unicode="t" 
d="M73 525h120v150h85v-150h220v-70h-220v-243c0 -92 37 -140 115 -140c62 0 93 33 115 59l56 -37c-30 -52 -101 -99 -171 -99c-135 0 -200 76 -200 217v243h-120v70z" />
    <glyph glyph-name="u" unicode="u" 
d="M535 0h-75l-10 87c-17 -43 -58 -92 -150 -92c-173 0 -185 139 -185 201v329h85v-329c0 -61 27 -121 110 -121c104 0 140 85 140 180v270h85v-525z" />
    <glyph glyph-name="v" unicode="v" 
d="M320 85h3l162 440h92l-203 -525h-54h-54l-203 525h92l162 -440h3z" />
    <glyph glyph-name="w" unicode="w" 
d="M48 525h84l61 -401h3h3l85 296h36h36l85 -296h3h3l61 401h84l-88 -525h-60h-28l-93 302h-3h-3l-93 -302h-28h-60z" />
    <glyph glyph-name="x" unicode="x" 
d="M89 525h96l135 -202l136 202h96l-178 -258l186 -267h-98l-142 211l-141 -211h-98l186 267z" />
    <glyph glyph-name="y" unicode="y" 
d="M63 525h92l165 -423l165 423h92l-237 -583c-34 -84 -86 -142 -209 -142h-29v73h29c74 0 116 41 135 90l14 34z" />
    <glyph glyph-name="z" unicode="z" 
d="M527 0h-414v66l303 381v5h-298v73h404v-68l-303 -379v-5h308v-73z" />
    <glyph glyph-name="braceleft" unicode="{" 
d="M178 353v38h5c42 0 72 30 72 81v154c0 100 60 180 170 180h19v-75h-19c-53 0 -90 -42 -90 -105v-154c0 -74 -28 -102 -63 -119c35 -17 63 -45 63 -119v-154c0 -63 37 -105 90 -105h19v-75h-19c-110 0 -170 80 -170 180v154c0 51 -30 81 -72 81h-5v38z" />
    <glyph glyph-name="bar" unicode="|" 
d="M360 -50h-80v825h80v-825z" />
    <glyph glyph-name="braceright" unicode="}" 
d="M462 353v-38h-5c-42 0 -72 -30 -72 -81v-154c0 -100 -60 -180 -170 -180h-19v75h19c53 0 90 42 90 105v154c0 74 28 102 63 119c-35 17 -63 45 -63 119v154c0 63 -37 105 -90 105h-19v75h19c110 0 170 -80 170 -180v-154c0 -51 30 -81 72 -81h5v-38z" />
    <glyph glyph-name="asciitilde" unicode="~" 
d="M232 337c-35 0 -57 -28 -59 -61h-72c0 83 51 141 131 141c79 0 123 -77 176 -77c35 0 57 30 59 63h72c0 -83 -51 -143 -131 -143s-123 77 -176 77z" />
    <glyph glyph-name="uni008C" 
 />
    <glyph glyph-name="uni008D" 
 />
    <glyph glyph-name="exclamdown" unicode="&#xa1;" 
d="M397 593c0 -43 -34 -78 -77 -78s-77 35 -77 78s34 78 77 78s77 -35 77 -78zM261 -22c0 100 15 292 24 422h70c9 -130 24 -322 24 -422c0 -53 -14 -87 -59 -87s-59 34 -59 87z" />
    <glyph glyph-name="sterling" unicode="&#xa3;" 
d="M234 498c0 -44 11 -77 21 -112h167v-76h-149c1 -11 2 -23 2 -36c0 -80 -29 -138 -65 -191v-5h314v-78h-314h-111v73c55 67 91 132 91 201c0 13 -1 25 -3 36h-68v76h48c-9 31 -18 65 -18 112c0 118 62 212 190 212c101 0 156 -60 182 -122l-69 -31c-16 30 -41 72 -113 72
c-63 0 -105 -41 -105 -131z" />
    <glyph glyph-name="yen" unicode="&#xa5;" 
d="M100 235v75h163l-49 89h-114v75h74l-126 231h93l177 -330h2h2l177 330h93l-126 -231h74v-75h-114l-49 -89h163v-75h-178v-235h-84v235h-178z" />
    <glyph glyph-name="section" unicode="&#xa7;" 
d="M221 384c-33 -22 -47 -54 -47 -91c0 -46 19 -83 82 -106l115 -42c15 -5 31 -12 46 -21c33 22 47 54 47 91c0 46 -19 83 -82 106l-115 42c-15 5 -31 12 -46 21zM475 75c21 -26 35 -60 35 -103c0 -110 -78 -176 -192 -176c-97 0 -156 39 -188 66l50 57
c27 -18 65 -43 138 -43c67 0 107 37 107 96c0 55 -39 82 -81 98l-114 43c-94 35 -142 96 -142 180c0 62 29 108 75 139c-21 26 -35 61 -35 104c0 110 78 176 192 176c97 0 156 -39 188 -66l-50 -57c-27 18 -65 43 -138 43c-67 0 -107 -37 -107 -96c0 -55 39 -82 81 -98
l114 -43c94 -35 142 -96 142 -180c0 -62 -29 -109 -75 -140z" />
    <glyph glyph-name="dieresis" unicode="&#xa8;" 
d="M155 691c0 36 30 66 66 66s66 -30 66 -66s-30 -66 -66 -66s-66 30 -66 66zM353 691c0 36 30 66 66 66s66 -30 66 -66s-30 -66 -66 -66s-66 30 -66 66z" />
    <glyph glyph-name="copyright" unicode="&#xa9;" horiz-adv-x="1280" 
d="M557 351c0 -57 36 -96 83 -96c37 0 59 13 78 34l44 -40c-16 -24 -62 -59 -122 -59c-83 0 -152 68 -152 161s67 160 152 160c61 0 104 -39 119 -62l-46 -38c-13 17 -36 37 -73 37c-46 0 -83 -39 -83 -97zM363 351c0 -153 124 -283 277 -283s278 130 278 283
s-125 282 -278 282s-277 -129 -277 -282zM284 351c0 197 159 356 356 356s356 -159 356 -356s-159 -356 -356 -356s-356 159 -356 356z" />
    <glyph glyph-name="guillemotleft" unicode="&#xab;" 
d="M320 340l216 218v-116l-135 -134v-2v-2l135 -134v-116l-216 218v34v34zM90 340l216 218v-116l-135 -134v-2v-2l135 -134v-116l-216 218v34v34z" />
    <glyph glyph-name="registered" unicode="&#xae;" horiz-adv-x="1280" 
d="M583 467v-93h58c36 0 58 20 58 49s-19 44 -58 44h-58zM533 196v317h50h58c66 0 108 -33 108 -90c0 -44 -26 -76 -67 -89l81 -138h-53l-77 132h-50v-132h-50zM363 351c0 -153 124 -283 277 -283s278 130 278 283s-125 282 -278 282s-277 -129 -277 -282zM284 351
c0 197 159 356 356 356s356 -159 356 -356s-159 -356 -356 -356s-356 159 -356 356z" />
    <glyph glyph-name="macron" unicode="&#xaf;" 
d="M170 720h300v-70h-300v70z" />
    <glyph glyph-name="degree" unicode="&#xb0;" 
d="M223 665c0 -58 41 -102 97 -102s97 44 97 102s-41 102 -97 102s-97 -44 -97 -102zM149 665c0 94 77 171 171 171s171 -77 171 -171s-77 -171 -171 -171s-171 77 -171 171z" />
    <glyph glyph-name="plusminus" unicode="&#xb1;" 
d="M280 438v152h80v-152h150v-76h-150v-152h-80v152h-150v76h150zM130 140h380v-80h-380v80z" />
    <glyph glyph-name="acute" unicode="&#xb4;" 
d="M284 605l115 150h105l-123 -150h-97z" />
    <glyph glyph-name="mu" unicode="&#xb5;" 
d="M115 -200v725h85v-329c0 -61 27 -121 110 -121c104 0 140 85 140 180v270h85v-525h-75l-10 88c-18 -45 -62 -93 -140 -93c-52 0 -89 26 -110 61v-256h-85z" />
    <glyph glyph-name="periodcentered" unicode="&#xb7;" 
d="M235 351c0 47 38 85 85 85s85 -38 85 -85s-38 -85 -85 -85s-85 38 -85 85z" />
    <glyph glyph-name="cedilla" unicode="&#xb8;" 
d="M278 18h61l-27 -59c7 1 14 2 20 2c47 -1 92 -31 92 -88s-43 -95 -110 -95c-49 0 -86 24 -101 39l26 37c30 -16 48 -21 75 -21c26 0 50 16 50 40s-22 40 -50 40c-21 0 -31 -3 -42 -7l-33 29z" />
    <glyph glyph-name="guillemotright" unicode="&#xbb;" 
d="M320 340v-34v-34l-216 -218v116l135 134v2v2l-135 134v116zM550 340v-34v-34l-216 -218v116l135 134v2v2l-135 134v116z" />
    <glyph glyph-name="questiondown" unicode="&#xbf;" 
d="M417 593c0 -43 -34 -78 -77 -78s-77 35 -77 78s34 78 77 78s77 -35 77 -78zM327 234l-59 -60c-28 -28 -52 -61 -52 -106c0 -64 53 -97 115 -97c51 0 83 28 108 80l69 -28c-27 -85 -95 -132 -177 -132c-119 0 -200 75 -200 177c0 81 47 123 82 162l52 57
c28 31 38 48 38 106v23h82v-21c0 -79 -15 -117 -58 -161z" />
    <glyph glyph-name="Agrave" unicode="&#xc0;" 
d="M320 624l-111 -354h222zM607 0h-91l-60 190h-272l-60 -190h-91l233 705h28h51h29zM376 785h-97l-123 150h105z" />
    <glyph glyph-name="Aacute" unicode="&#xc1;" 
d="M320 624l-111 -354h222zM607 0h-91l-60 190h-272l-60 -190h-91l233 705h28h51h29zM264 785l115 150h105l-123 -150h-97z" />
    <glyph glyph-name="Acircumflex" unicode="&#xc2;" 
d="M320 624l-111 -354h222zM607 0h-91l-60 190h-272l-60 -190h-91l233 705h28h51h29zM158 785l105 150h19h76h19l105 -150h-81l-81 102l-81 -102h-81z" />
    <glyph glyph-name="Atilde" unicode="&#xc3;" 
d="M320 624l-111 -354h222zM607 0h-91l-60 190h-272l-60 -190h-91l233 705h28h51h29zM240 853c-32 0 -48 -22 -52 -48h-65c0 73 45 118 117 118c69 0 109 -53 160 -53c32 0 48 22 52 48h65c0 -73 -45 -118 -117 -118c-69 0 -109 53 -160 53z" />
    <glyph glyph-name="Adieresis" unicode="&#xc4;" 
d="M320 624l-111 -354h222zM607 0h-91l-60 190h-272l-60 -190h-91l233 705h28h51h29zM155 871c0 36 30 66 66 66s66 -30 66 -66s-30 -66 -66 -66s-66 30 -66 66zM353 871c0 36 30 66 66 66s66 -30 66 -66s-30 -66 -66 -66s-66 30 -66 66z" />
    <glyph glyph-name="Aring" unicode="&#xc5;" 
d="M320 624l-111 -354h222zM607 0h-91l-60 190h-272l-60 -190h-91l233 705h28h51h29zM269 891c0 -29 21 -53 51 -53s51 24 51 53s-21 53 -51 53s-51 -24 -51 -53zM204 891c0 64 52 116 116 116s116 -52 116 -116s-52 -116 -116 -116s-116 52 -116 116z" />
    <glyph glyph-name="AE" unicode="&#xc6;" 
d="M422 623v-224h160v-82h-160v-235h190v-82h-190h-85v190h-155l-67 -190h-92l260 705h19h35h25h60h190v-82h-190zM337 623h-4l-123 -353h127v353z" />
    <glyph glyph-name="Ccedilla" unicode="&#xc7;" 
d="M461 537c-11 25 -49 92 -136 92c-110 0 -180 -101 -180 -276s70 -277 180 -277c87 0 125 68 136 92l80 -33c-36 -81 -106 -139 -213 -140l-16 -36c7 1 14 2 20 2c47 -1 92 -31 92 -88s-43 -95 -110 -95c-49 0 -86 24 -101 39l26 37c30 -16 48 -21 75 -21
c26 0 50 16 50 40s-22 40 -50 40c-21 0 -31 -3 -42 -7l-33 29l31 65c-147 29 -215 174 -215 353c0 200 85 357 270 357c109 0 180 -58 216 -140z" />
    <glyph glyph-name="Egrave" unicode="&#xc8;" 
d="M127 0v705h85h310v-82h-310v-224h280v-82h-280v-235h310v-82h-310h-85zM376 785h-97l-123 150h105z" />
    <glyph glyph-name="Eacute" unicode="&#xc9;" 
d="M127 0v705h85h310v-82h-310v-224h280v-82h-280v-235h310v-82h-310h-85zM264 785l115 150h105l-123 -150h-97z" />
    <glyph glyph-name="Ecircumflex" unicode="&#xca;" 
d="M127 0v705h85h310v-82h-310v-224h280v-82h-280v-235h310v-82h-310h-85zM158 785l105 150h19h76h19l105 -150h-81l-81 102l-81 -102h-81z" />
    <glyph glyph-name="Edieresis" unicode="&#xcb;" 
d="M127 0v705h85h310v-82h-310v-224h280v-82h-280v-235h310v-82h-310h-85zM155 871c0 36 30 66 66 66s66 -30 66 -66s-30 -66 -66 -66s-66 30 -66 66zM353 871c0 36 30 66 66 66s66 -30 66 -66s-30 -66 -66 -66s-66 30 -66 66z" />
    <glyph glyph-name="Igrave" unicode="&#xcc;" 
d="M100 635v70h440v-70h-176v-565h176v-70h-440v70h176v565h-176zM376 785h-97l-123 150h105z" />
    <glyph glyph-name="Iacute" unicode="&#xcd;" 
d="M100 635v70h440v-70h-176v-565h176v-70h-440v70h176v565h-176zM264 785l115 150h105l-123 -150h-97z" />
    <glyph glyph-name="Icircumflex" unicode="&#xce;" 
d="M100 635v70h440v-70h-176v-565h176v-70h-440v70h176v565h-176zM158 785l105 150h19h76h19l105 -150h-81l-81 102l-81 -102h-81z" />
    <glyph glyph-name="Idieresis" unicode="&#xcf;" 
d="M100 635v70h440v-70h-176v-565h176v-70h-440v70h176v565h-176zM155 871c0 36 30 66 66 66s66 -30 66 -66s-30 -66 -66 -66s-66 30 -66 66zM353 871c0 36 30 66 66 66s66 -30 66 -66s-30 -66 -66 -66s-66 30 -66 66z" />
    <glyph glyph-name="Eth" unicode="&#xd0;" 
d="M103 323h-62v70h62v312h85h75c215 0 320 -138 320 -355c0 -210 -110 -350 -320 -350h-75h-85v323zM188 323v-243h75c142 0 235 100 235 270c0 169 -85 275 -235 275h-75v-232h118v-70h-118z" />
    <glyph glyph-name="Ntilde" unicode="&#xd1;" 
d="M470 0l-295 540h-5v-540h-85v540v165h85l295 -540h5v540h85v-540v-165h-85zM240 853c-32 0 -48 -22 -52 -48h-65c0 73 45 118 117 118c69 0 109 -53 160 -53c32 0 48 22 52 48h65c0 -73 -45 -118 -117 -118c-69 0 -109 53 -160 53z" />
    <glyph glyph-name="Ograve" unicode="&#xd2;" 
d="M140 353c0 -175 70 -277 180 -277s180 102 180 277s-70 276 -180 276s-180 -101 -180 -276zM50 353c0 200 85 357 270 357s270 -157 270 -357s-85 -358 -270 -358s-270 158 -270 358zM376 785h-97l-123 150h105z" />
    <glyph glyph-name="Oacute" unicode="&#xd3;" 
d="M140 353c0 -175 70 -277 180 -277s180 102 180 277s-70 276 -180 276s-180 -101 -180 -276zM50 353c0 200 85 357 270 357s270 -157 270 -357s-85 -358 -270 -358s-270 158 -270 358zM264 785l115 150h105l-123 -150h-97z" />
    <glyph glyph-name="Ocircumflex" unicode="&#xd4;" 
d="M140 353c0 -175 70 -277 180 -277s180 102 180 277s-70 276 -180 276s-180 -101 -180 -276zM50 353c0 200 85 357 270 357s270 -157 270 -357s-85 -358 -270 -358s-270 158 -270 358zM158 785l105 150h19h76h19l105 -150h-81l-81 102l-81 -102h-81z" />
    <glyph glyph-name="Otilde" unicode="&#xd5;" 
d="M140 353c0 -175 70 -277 180 -277s180 102 180 277s-70 276 -180 276s-180 -101 -180 -276zM50 353c0 200 85 357 270 357s270 -157 270 -357s-85 -358 -270 -358s-270 158 -270 358zM240 853c-32 0 -48 -22 -52 -48h-65c0 73 45 118 117 118c69 0 109 -53 160 -53
c32 0 48 22 52 48h65c0 -73 -45 -118 -117 -118c-69 0 -109 53 -160 53z" />
    <glyph glyph-name="Odieresis" unicode="&#xd6;" 
d="M140 353c0 -175 70 -277 180 -277s180 102 180 277s-70 276 -180 276s-180 -101 -180 -276zM50 353c0 200 85 357 270 357s270 -157 270 -357s-85 -358 -270 -358s-270 158 -270 358zM155 871c0 36 30 66 66 66s66 -30 66 -66s-30 -66 -66 -66s-66 30 -66 66zM353 871
c0 36 30 66 66 66s66 -30 66 -66s-30 -66 -66 -66s-66 30 -66 66z" />
    <glyph glyph-name="multiply" unicode="&#xd7;" 
d="M265 329l-138 137l57 57l137 -138l136 136l54 -54l-136 -136l138 -137l-57 -57l-137 138l-136 -136l-54 54z" />
    <glyph glyph-name="Oslash" unicode="&#xd8;" 
d="M478 500l-283 -360c31 -42 74 -64 125 -64c110 0 180 102 180 277c0 57 -8 106 -22 147zM445 565c-31 42 -73 64 -125 64c-110 0 -180 -101 -180 -276c0 -58 8 -107 22 -148zM50 353c0 200 85 357 270 357c78 0 137 -27 181 -74l45 57l51 -42l-56 -71
c33 -61 49 -140 49 -227c0 -200 -85 -358 -270 -358c-77 0 -138 27 -181 74l-45 -58l-51 43l56 71c-33 62 -49 141 -49 228z" />
    <glyph glyph-name="Ugrave" unicode="&#xd9;" 
d="M90 270v435h85v-435c0 -134 50 -195 145 -195s145 60 145 195v435h85v-435c0 -187 -79 -275 -230 -275s-230 88 -230 275zM376 785h-97l-123 150h105z" />
    <glyph glyph-name="Uacute" unicode="&#xda;" 
d="M90 270v435h85v-435c0 -134 50 -195 145 -195s145 60 145 195v435h85v-435c0 -187 -79 -275 -230 -275s-230 88 -230 275zM264 785l115 150h105l-123 -150h-97z" />
    <glyph glyph-name="Ucircumflex" unicode="&#xdb;" 
d="M90 270v435h85v-435c0 -134 50 -195 145 -195s145 60 145 195v435h85v-435c0 -187 -79 -275 -230 -275s-230 88 -230 275zM158 785l105 150h19h76h19l105 -150h-81l-81 102l-81 -102h-81z" />
    <glyph glyph-name="Udieresis" unicode="&#xdc;" 
d="M90 270v435h85v-435c0 -134 50 -195 145 -195s145 60 145 195v435h85v-435c0 -187 -79 -275 -230 -275s-230 88 -230 275zM155 871c0 36 30 66 66 66s66 -30 66 -66s-30 -66 -66 -66s-66 30 -66 66zM353 871c0 36 30 66 66 66s66 -30 66 -66s-30 -66 -66 -66
s-66 30 -66 66z" />
    <glyph glyph-name="Yacute" unicode="&#xdd;" 
d="M320 375h2l177 330h93l-230 -423v-282h-84v282l-230 423h93l177 -330h2zM264 785l115 150h105l-123 -150h-97z" />
    <glyph glyph-name="Thorn" unicode="&#xde;" 
d="M200 481v-260h156c90 0 144 50 144 130s-54 130 -144 130h-156zM115 0v705h85v-144h155c140 0 230 -80 230 -210s-90 -210 -230 -210h-155v-141h-85z" />
    <glyph glyph-name="germandbls" unicode="&#xdf;" 
d="M390 590c0 46 -27 95 -98 95c-67 0 -103 -42 -103 -122v-563h-80v563c0 140 80 197 183 197c109 0 178 -73 178 -170c0 -101 -81 -127 -81 -187c0 -39 14 -56 47 -75l49 -27c50 -28 104 -72 104 -149c0 -99 -75 -159 -167 -159c-89 0 -132 49 -161 102l58 39
c21 -30 48 -66 103 -66c56 0 87 40 87 84c0 35 -22 61 -63 80l-42 22c-58 30 -95 71 -95 149c0 101 81 122 81 187z" />
    <glyph glyph-name="agrave" unicode="&#xe0;" 
d="M453 217v33h-95h-98c-67 0 -92 -38 -92 -85s42 -95 120 -95c103 0 165 68 165 147zM452 321c-5 67 -35 129 -134 129c-81 0 -122 -40 -144 -58l-49 51c19 20 85 87 193 87c181 0 215 -122 215 -230v-300h-70l-10 84c-27 -49 -93 -89 -165 -89c-114 0 -200 62 -200 170
c0 105 71 156 172 156h90h102zM391 605h-97l-123 150h105z" />
    <glyph glyph-name="aacute" unicode="&#xe1;" 
d="M453 217v33h-95h-98c-67 0 -92 -38 -92 -85s42 -95 120 -95c103 0 165 68 165 147zM452 321c-5 67 -35 129 -134 129c-81 0 -122 -40 -144 -58l-49 51c19 20 85 87 193 87c181 0 215 -122 215 -230v-300h-70l-10 84c-27 -49 -93 -89 -165 -89c-114 0 -200 62 -200 170
c0 105 71 156 172 156h90h102zM279 605l115 150h105l-123 -150h-97z" />
    <glyph glyph-name="acircumflex" unicode="&#xe2;" 
d="M453 217v33h-95h-98c-67 0 -92 -38 -92 -85s42 -95 120 -95c103 0 165 68 165 147zM452 321c-5 67 -35 129 -134 129c-81 0 -122 -40 -144 -58l-49 51c19 20 85 87 193 87c181 0 215 -122 215 -230v-300h-70l-10 84c-27 -49 -93 -89 -165 -89c-114 0 -200 62 -200 170
c0 105 71 156 172 156h90h102zM173 605l105 150h19h76h19l105 -150h-81l-81 102l-81 -102h-81z" />
    <glyph glyph-name="atilde" unicode="&#xe3;" 
d="M453 217v33h-95h-98c-67 0 -92 -38 -92 -85s42 -95 120 -95c103 0 165 68 165 147zM452 321c-5 67 -35 129 -134 129c-81 0 -122 -40 -144 -58l-49 51c19 20 85 87 193 87c181 0 215 -122 215 -230v-300h-70l-10 84c-27 -49 -93 -89 -165 -89c-114 0 -200 62 -200 170
c0 105 71 156 172 156h90h102zM255 673c-32 0 -48 -22 -52 -48h-65c0 73 45 118 117 118c69 0 109 -53 160 -53c32 0 48 22 52 48h65c0 -73 -45 -118 -117 -118c-69 0 -109 53 -160 53z" />
    <glyph glyph-name="adieresis" unicode="&#xe4;" 
d="M453 217v33h-95h-98c-67 0 -92 -38 -92 -85s42 -95 120 -95c103 0 165 68 165 147zM452 321c-5 67 -35 129 -134 129c-81 0 -122 -40 -144 -58l-49 51c19 20 85 87 193 87c181 0 215 -122 215 -230v-300h-70l-10 84c-27 -49 -93 -89 -165 -89c-114 0 -200 62 -200 170
c0 105 71 156 172 156h90h102zM170 691c0 36 30 66 66 66s66 -30 66 -66s-30 -66 -66 -66s-66 30 -66 66zM368 691c0 36 30 66 66 66s66 -30 66 -66s-30 -66 -66 -66s-66 30 -66 66z" />
    <glyph glyph-name="aring" unicode="&#xe5;" 
d="M453 217v33h-95h-98c-67 0 -92 -38 -92 -85s42 -95 120 -95c103 0 165 68 165 147zM452 321c-5 67 -35 129 -134 129c-81 0 -122 -40 -144 -58l-49 51c19 20 85 87 193 87c181 0 215 -122 215 -230v-300h-70l-10 84c-27 -49 -93 -89 -165 -89c-114 0 -200 62 -200 170
c0 105 71 156 172 156h90h102zM284 711c0 -29 21 -53 51 -53s51 24 51 53s-21 53 -51 53s-51 -24 -51 -53zM219 711c0 64 52 116 116 116s116 -52 116 -116s-52 -116 -116 -116s-116 52 -116 116z" />
    <glyph glyph-name="ae" unicode="&#xe6;" 
d="M363 313h187v25c0 63 -20 114 -84 114c-86 0 -103 -82 -103 -139zM288 313c0 53 -7 137 -88 137c-68 0 -96 -35 -117 -55l-48 48c17 22 71 87 165 87c72 0 113 -30 136 -73c27 47 68 73 129 73c129 0 155 -126 155 -208c0 -41 -4 -81 -4 -81h-252c0 -75 25 -168 109 -168
c60 0 81 47 96 75l54 -30c-22 -60 -68 -123 -150 -123c-73 0 -119 31 -146 89c-24 -57 -78 -89 -130 -89c-107 0 -175 61 -175 167c0 101 77 151 171 151h42h53zM288 243h-45h-50c-59 0 -91 -26 -91 -81c0 -52 33 -92 95 -92c76 0 91 68 91 127v46z" />
    <glyph glyph-name="ccedilla" unicode="&#xe7;" 
d="M170 262c0 -115 66 -187 164 -187c74 0 110 33 143 73l59 -38c-26 -41 -91 -115 -202 -115h-6l-16 -36c7 1 14 2 20 2c47 -1 92 -31 92 -88s-43 -95 -110 -95c-49 0 -86 24 -101 39l26 37c30 -16 48 -21 75 -21c26 0 50 16 50 40s-22 40 -50 40c-21 0 -31 -3 -42 -7
l-33 29l31 67c-111 26 -187 120 -187 260c0 165 106 267 251 267c111 0 176 -74 202 -115l-59 -38c-33 40 -69 73 -143 73c-98 0 -164 -72 -164 -187z" />
    <glyph glyph-name="egrave" unicode="&#xe8;" 
d="M165 311h312c0 75 -55 140 -149 140c-106 0 -163 -81 -163 -140zM159 239c0 -71 54 -166 170 -166c66 0 124 34 160 85l61 -38c-38 -71 -122 -125 -221 -125c-151 0 -251 97 -251 267c0 165 108 268 255 268c141 0 224 -106 224 -246c0 -33 -4 -45 -4 -45h-394zM376 605
h-97l-123 150h105z" />
    <glyph glyph-name="eacute" unicode="&#xe9;" 
d="M165 311h312c0 75 -55 140 -149 140c-106 0 -163 -81 -163 -140zM159 239c0 -71 54 -166 170 -166c66 0 124 34 160 85l61 -38c-38 -71 -122 -125 -221 -125c-151 0 -251 97 -251 267c0 165 108 268 255 268c141 0 224 -106 224 -246c0 -33 -4 -45 -4 -45h-394zM264 605
l115 150h105l-123 -150h-97z" />
    <glyph glyph-name="ecircumflex" unicode="&#xea;" 
d="M165 311h312c0 75 -55 140 -149 140c-106 0 -163 -81 -163 -140zM159 239c0 -71 54 -166 170 -166c66 0 124 34 160 85l61 -38c-38 -71 -122 -125 -221 -125c-151 0 -251 97 -251 267c0 165 108 268 255 268c141 0 224 -106 224 -246c0 -33 -4 -45 -4 -45h-394zM158 605
l105 150h19h76h19l105 -150h-81l-81 102l-81 -102h-81z" />
    <glyph glyph-name="edieresis" unicode="&#xeb;" 
d="M165 311h312c0 75 -55 140 -149 140c-106 0 -163 -81 -163 -140zM159 239c0 -71 54 -166 170 -166c66 0 124 34 160 85l61 -38c-38 -71 -122 -125 -221 -125c-151 0 -251 97 -251 267c0 165 108 268 255 268c141 0 224 -106 224 -246c0 -33 -4 -45 -4 -45h-394zM155 691
c0 36 30 66 66 66s66 -30 66 -66s-30 -66 -66 -66s-66 30 -66 66zM353 691c0 36 30 66 66 66s66 -30 66 -66s-30 -66 -66 -66s-66 30 -66 66z" />
    <glyph glyph-name="igrave" unicode="&#xec;" 
d="M93 0v70h207v385h-140v70h220v-70v-385h187v-70h-474zM376 605h-97l-123 150h105z" />
    <glyph glyph-name="iacute" unicode="&#xed;" 
d="M93 0v70h207v385h-140v70h220v-70v-385h187v-70h-474zM264 605l115 150h105l-123 -150h-97z" />
    <glyph glyph-name="icircumflex" unicode="&#xee;" 
d="M93 0v70h207v385h-140v70h220v-70v-385h187v-70h-474zM158 605l105 150h19h76h19l105 -150h-81l-81 102l-81 -102h-81z" />
    <glyph glyph-name="idieresis" unicode="&#xef;" 
d="M93 0v70h207v385h-140v70h220v-70v-385h187v-70h-474zM155 691c0 36 30 66 66 66s66 -30 66 -66s-30 -66 -66 -66s-66 30 -66 66zM353 691c0 36 30 66 66 66s66 -30 66 -66s-30 -66 -66 -66s-66 30 -66 66z" />
    <glyph glyph-name="eth" unicode="&#xf0;" 
d="M427 491c-25 46 -65 86 -109 118l-128 -38l-15 51l86 25c-23 14 -46 27 -66 38l33 63c48 -21 92 -45 131 -72l99 29l15 -51l-63 -18c101 -90 155 -210 155 -373c0 -165 -97 -268 -245 -268s-250 103 -250 268s105 267 250 267c45 0 80 -16 107 -39zM485 263
c0 115 -62 187 -165 187s-165 -72 -165 -187s62 -188 165 -188s165 73 165 188z" />
    <glyph glyph-name="ntilde" unicode="&#xf1;" 
d="M115 525h75l10 -87c17 43 58 92 150 92c173 0 185 -139 185 -201v-329h-85v329c0 61 -27 121 -110 121c-104 0 -140 -85 -140 -180v-270h-85v525zM250 673c-32 0 -48 -22 -52 -48h-65c0 73 45 118 117 118c69 0 109 -53 160 -53c32 0 48 22 52 48h65
c0 -73 -45 -118 -117 -118c-69 0 -109 53 -160 53z" />
    <glyph glyph-name="ograve" unicode="&#xf2;" 
d="M155 262c0 -115 67 -187 165 -187s165 72 165 187s-67 188 -165 188s-165 -73 -165 -188zM70 262c0 165 105 268 250 268s250 -103 250 -268s-105 -267 -250 -267s-250 102 -250 267zM376 605h-97l-123 150h105z" />
    <glyph glyph-name="oacute" unicode="&#xf3;" 
d="M155 262c0 -115 67 -187 165 -187s165 72 165 187s-67 188 -165 188s-165 -73 -165 -188zM70 262c0 165 105 268 250 268s250 -103 250 -268s-105 -267 -250 -267s-250 102 -250 267zM264 605l115 150h105l-123 -150h-97z" />
    <glyph glyph-name="ocircumflex" unicode="&#xf4;" 
d="M155 262c0 -115 67 -187 165 -187s165 72 165 187s-67 188 -165 188s-165 -73 -165 -188zM70 262c0 165 105 268 250 268s250 -103 250 -268s-105 -267 -250 -267s-250 102 -250 267zM158 605l105 150h19h76h19l105 -150h-81l-81 102l-81 -102h-81z" />
    <glyph glyph-name="otilde" unicode="&#xf5;" 
d="M155 262c0 -115 67 -187 165 -187s165 72 165 187s-67 188 -165 188s-165 -73 -165 -188zM70 262c0 165 105 268 250 268s250 -103 250 -268s-105 -267 -250 -267s-250 102 -250 267zM240 673c-32 0 -48 -22 -52 -48h-65c0 73 45 118 117 118c69 0 109 -53 160 -53
c32 0 48 22 52 48h65c0 -73 -45 -118 -117 -118c-69 0 -109 53 -160 53z" />
    <glyph glyph-name="odieresis" unicode="&#xf6;" 
d="M155 262c0 -115 67 -187 165 -187s165 72 165 187s-67 188 -165 188s-165 -73 -165 -188zM70 262c0 165 105 268 250 268s250 -103 250 -268s-105 -267 -250 -267s-250 102 -250 267zM155 691c0 36 30 66 66 66s66 -30 66 -66s-30 -66 -66 -66s-66 30 -66 66zM353 691
c0 36 30 66 66 66s66 -30 66 -66s-30 -66 -66 -66s-66 30 -66 66z" />
    <glyph glyph-name="divide" unicode="&#xf7;" 
d="M243 509c0 43 34 78 77 78s77 -35 77 -78s-34 -78 -77 -78s-77 35 -77 78zM243 73c0 43 34 78 77 78s77 -35 77 -78s-34 -78 -77 -78s-77 35 -77 78zM140 331h360v-80h-360v80z" />
    <glyph glyph-name="oslash" unicode="&#xf8;" 
d="M464 362l-250 -250c28 -24 64 -37 106 -37c98 0 165 72 165 187c0 38 -7 72 -21 100zM426 412c-28 24 -64 38 -106 38c-98 0 -165 -73 -165 -188c0 -39 7 -72 21 -100zM70 262c0 165 105 268 250 268c65 0 122 -21 165 -59l47 47l44 -44l-50 -50c28 -43 44 -98 44 -162
c0 -165 -105 -267 -250 -267c-65 0 -122 20 -165 58l-47 -47l-44 44l50 50c-28 43 -44 98 -44 162z" />
    <glyph glyph-name="ugrave" unicode="&#xf9;" 
d="M535 0h-75l-10 87c-17 -43 -58 -92 -150 -92c-173 0 -185 139 -185 201v329h85v-329c0 -61 27 -121 110 -121c104 0 140 85 140 180v270h85v-525zM381 605h-97l-123 150h105z" />
    <glyph glyph-name="uacute" unicode="&#xfa;" 
d="M535 0h-75l-10 87c-17 -43 -58 -92 -150 -92c-173 0 -185 139 -185 201v329h85v-329c0 -61 27 -121 110 -121c104 0 140 85 140 180v270h85v-525zM269 605l115 150h105l-123 -150h-97z" />
    <glyph glyph-name="ucircumflex" unicode="&#xfb;" 
d="M535 0h-75l-10 87c-17 -43 -58 -92 -150 -92c-173 0 -185 139 -185 201v329h85v-329c0 -61 27 -121 110 -121c104 0 140 85 140 180v270h85v-525zM163 605l105 150h19h76h19l105 -150h-81l-81 102l-81 -102h-81z" />
    <glyph glyph-name="udieresis" unicode="&#xfc;" 
d="M535 0h-75l-10 87c-17 -43 -58 -92 -150 -92c-173 0 -185 139 -185 201v329h85v-329c0 -61 27 -121 110 -121c104 0 140 85 140 180v270h85v-525zM160 691c0 36 30 66 66 66s66 -30 66 -66s-30 -66 -66 -66s-66 30 -66 66zM358 691c0 36 30 66 66 66s66 -30 66 -66
s-30 -66 -66 -66s-66 30 -66 66z" />
    <glyph glyph-name="yacute" unicode="&#xfd;" 
d="M63 525h92l165 -423l165 423h92l-237 -583c-34 -84 -86 -142 -209 -142h-29v73h29c74 0 116 41 135 90l14 34zM264 605l115 150h105l-123 -150h-97z" />
    <glyph glyph-name="thorn" unicode="&#xfe;" 
d="M170 262c0 -110 60 -187 155 -187c103 0 165 72 165 187s-62 188 -165 188c-95 0 -155 -78 -155 -188zM95 -200v955h85v-305c31 48 81 80 160 80c148 0 235 -103 235 -268s-90 -267 -235 -267c-79 0 -129 33 -160 80v-275h-85z" />
    <glyph glyph-name="ydieresis" unicode="&#xff;" 
d="M63 525h92l165 -423l165 423h92l-237 -583c-34 -84 -86 -142 -209 -142h-29v73h29c74 0 116 41 135 90l14 34zM155 691c0 36 30 66 66 66s66 -30 66 -66s-30 -66 -66 -66s-66 30 -66 66zM353 691c0 36 30 66 66 66s66 -30 66 -66s-30 -66 -66 -66s-66 30 -66 66z" />
    <glyph glyph-name="Amacron" unicode="&#x100;" 
d="M320 624l-111 -354h222zM607 0h-91l-60 190h-272l-60 -190h-91l233 705h28h51h29zM170 900h300v-70h-300v70z" />
    <glyph glyph-name="amacron" unicode="&#x101;" 
d="M453 217v33h-95h-98c-67 0 -92 -38 -92 -85s42 -95 120 -95c103 0 165 68 165 147zM452 321c-5 67 -35 129 -134 129c-81 0 -122 -40 -144 -58l-49 51c19 20 85 87 193 87c181 0 215 -122 215 -230v-300h-70l-10 84c-27 -49 -93 -89 -165 -89c-114 0 -200 62 -200 170
c0 105 71 156 172 156h90h102zM185 720h300v-70h-300v70z" />
    <glyph glyph-name="Abreve" unicode="&#x102;" 
d="M320 624l-111 -354h222zM320 847c39 0 73 30 81 78h60c-7 -86 -68 -143 -141 -143s-134 57 -141 143h60c8 -48 42 -78 81 -78zM607 0h-91l-60 190h-272l-60 -190h-91l233 705h28h51h29z" />
    <glyph glyph-name="abreve" unicode="&#x103;" 
d="M453 217v33h-95h-98c-67 0 -92 -38 -92 -85s42 -95 120 -95c103 0 165 68 165 147zM452 321c-5 67 -35 129 -134 129c-81 0 -122 -40 -144 -58l-49 51c19 20 85 87 193 87c181 0 215 -122 215 -230v-300h-70l-10 84c-27 -49 -93 -89 -165 -89c-114 0 -200 62 -200 170
c0 105 71 156 172 156h90h102zM335 667c39 0 73 30 81 78h60c-7 -86 -68 -143 -141 -143s-134 57 -141 143h60c8 -48 42 -78 81 -78z" />
    <glyph glyph-name="Aogonek" unicode="&#x104;" 
d="M320 624l-111 -354h222zM607 0c-62 -29 -80 -67 -80 -100c0 -24 18 -43 45 -43c7 0 17 1 25 4l18 -42c-16 -12 -39 -19 -70 -19c-38 0 -88 33 -88 90c0 40 23 78 59 110l-60 190h-272l-60 -190h-91l233 705h28h51h29z" />
    <glyph glyph-name="aogonek" unicode="&#x105;" 
d="M453 217v33h-95h-98c-67 0 -92 -38 -92 -85s42 -95 120 -95c103 0 165 68 165 147zM533 0c-43 -39 -70 -64 -70 -100c0 -24 18 -43 45 -43c7 0 17 1 25 4l18 -42c-16 -12 -39 -19 -70 -19c-38 0 -88 33 -88 90c0 40 28 81 70 110l-10 84c-27 -49 -93 -89 -165 -89
c-114 0 -200 62 -200 170c0 105 71 156 172 156h90h102c-5 67 -35 129 -134 129c-81 0 -122 -40 -144 -58l-49 51c19 20 85 87 193 87c181 0 215 -122 215 -230v-300z" />
    <glyph glyph-name="Cacute" unicode="&#x106;" 
d="M461 537c-11 25 -49 92 -136 92c-110 0 -180 -101 -180 -276s70 -277 180 -277c87 0 125 68 136 92l80 -33c-36 -82 -107 -140 -216 -140c-185 0 -270 158 -270 358s85 357 270 357c109 0 180 -58 216 -140zM264 785l115 150h105l-123 -150h-97z" />
    <glyph glyph-name="cacute" unicode="&#x107;" 
d="M170 262c0 -115 66 -187 164 -187c74 0 110 33 143 73l59 -38c-26 -41 -91 -115 -202 -115c-145 0 -251 102 -251 267s106 267 251 267c111 0 176 -74 202 -115l-59 -38c-33 40 -69 73 -143 73c-98 0 -164 -72 -164 -187zM264 605l115 150h105l-123 -150h-97z" />
    <glyph glyph-name="Ccircumflex" unicode="&#x108;" 
d="M461 537c-11 25 -49 92 -136 92c-110 0 -180 -101 -180 -276s70 -277 180 -277c87 0 125 68 136 92l80 -33c-36 -82 -107 -140 -216 -140c-185 0 -270 158 -270 358s85 357 270 357c109 0 180 -58 216 -140zM158 785l105 150h19h76h19l105 -150h-81l-81 102l-81 -102h-81
z" />
    <glyph glyph-name="ccircumflex" unicode="&#x109;" 
d="M170 262c0 -115 66 -187 164 -187c74 0 110 33 143 73l59 -38c-26 -41 -91 -115 -202 -115c-145 0 -251 102 -251 267s106 267 251 267c111 0 176 -74 202 -115l-59 -38c-33 40 -69 73 -143 73c-98 0 -164 -72 -164 -187zM158 605l105 150h19h76h19l105 -150h-81l-81 102
l-81 -102h-81z" />
    <glyph glyph-name="Cdotaccent" unicode="&#x10a;" 
d="M461 537c-11 25 -49 92 -136 92c-110 0 -180 -101 -180 -276s70 -277 180 -277c87 0 125 68 136 92l80 -33c-36 -82 -107 -140 -216 -140c-185 0 -270 158 -270 358s85 357 270 357c109 0 180 -58 216 -140zM242 883c0 44 34 80 78 80s80 -36 80 -80s-36 -78 -80 -78
s-78 34 -78 78z" />
    <glyph glyph-name="cdotaccent" unicode="&#x10b;" 
d="M170 262c0 -115 66 -187 164 -187c74 0 110 33 143 73l59 -38c-26 -41 -91 -115 -202 -115c-145 0 -251 102 -251 267s106 267 251 267c111 0 176 -74 202 -115l-59 -38c-33 40 -69 73 -143 73c-98 0 -164 -72 -164 -187zM242 703c0 44 34 80 78 80s80 -36 80 -80
s-36 -78 -80 -78s-78 34 -78 78z" />
    <glyph glyph-name="Ccaron" unicode="&#x10c;" 
d="M461 537c-11 25 -49 92 -136 92c-110 0 -180 -101 -180 -276s70 -277 180 -277c87 0 125 68 136 92l80 -33c-36 -82 -107 -140 -216 -140c-185 0 -270 158 -270 358s85 357 270 357c109 0 180 -58 216 -140zM158 935h81l81 -102l81 102h81l-105 -150h-19h-76h-19z" />
    <glyph glyph-name="ccaron" unicode="&#x10d;" 
d="M170 262c0 -115 66 -187 164 -187c74 0 110 33 143 73l59 -38c-26 -41 -91 -115 -202 -115c-145 0 -251 102 -251 267s106 267 251 267c111 0 176 -74 202 -115l-59 -38c-33 40 -69 73 -143 73c-98 0 -164 -72 -164 -187zM158 755h81l81 -102l81 102h81l-105 -150h-19
h-76h-19z" />
    <glyph glyph-name="Dcaron" unicode="&#x10e;" 
d="M178 80h75c142 0 235 100 235 270c0 169 -85 275 -235 275h-75v-545zM93 705h85h75c215 0 320 -138 320 -355c0 -210 -110 -350 -320 -350h-75h-85v705zM138 935h81l81 -102l81 102h81l-105 -150h-19h-76h-19z" />
    <glyph glyph-name="dcaron" unicode="&#x10f;" 
d="M470 263c0 110 -60 187 -155 187c-103 0 -165 -72 -165 -187s62 -188 165 -188c95 0 155 78 155 188zM545 755v-755h-75l-10 75c-31 -48 -81 -80 -160 -80c-148 0 -235 103 -235 268s90 267 235 267c79 0 129 -33 160 -80v305h85zM605 565v190h80l-27 -190h-53z" />
    <glyph glyph-name="Emacron" unicode="&#x112;" 
d="M127 0v705h85h310v-82h-310v-224h280v-82h-280v-235h310v-82h-310h-85zM170 900h300v-70h-300v70z" />
    <glyph glyph-name="emacron" unicode="&#x113;" 
d="M165 311h312c0 75 -55 140 -149 140c-106 0 -163 -81 -163 -140zM159 239c0 -71 54 -166 170 -166c66 0 124 34 160 85l61 -38c-38 -71 -122 -125 -221 -125c-151 0 -251 97 -251 267c0 165 108 268 255 268c141 0 224 -106 224 -246c0 -33 -4 -45 -4 -45h-394zM170 720
h300v-70h-300v70z" />
    <glyph glyph-name="Ebreve" unicode="&#x114;" 
d="M320 847c39 0 73 30 81 78h60c-7 -86 -68 -143 -141 -143s-134 57 -141 143h60c8 -48 42 -78 81 -78zM127 0v705h85h310v-82h-310v-224h280v-82h-280v-235h310v-82h-310h-85z" />
    <glyph glyph-name="ebreve" unicode="&#x115;" 
d="M320 667c39 0 73 30 81 78h60c-7 -86 -68 -143 -141 -143s-134 57 -141 143h60c8 -48 42 -78 81 -78zM165 311h312c0 75 -55 140 -149 140c-106 0 -163 -81 -163 -140zM159 239c0 -71 54 -166 170 -166c66 0 124 34 160 85l61 -38c-38 -71 -122 -125 -221 -125
c-151 0 -251 97 -251 267c0 165 108 268 255 268c141 0 224 -106 224 -246c0 -33 -4 -45 -4 -45h-394z" />
    <glyph glyph-name="Edotaccent" unicode="&#x116;" 
d="M127 0v705h85h310v-82h-310v-224h280v-82h-280v-235h310v-82h-310h-85zM242 883c0 44 34 80 78 80s80 -36 80 -80s-36 -78 -80 -78s-78 34 -78 78z" />
    <glyph glyph-name="edotaccent" unicode="&#x117;" 
d="M165 311h312c0 75 -55 140 -149 140c-106 0 -163 -81 -163 -140zM159 239c0 -71 54 -166 170 -166c66 0 124 34 160 85l61 -38c-38 -71 -122 -125 -221 -125c-151 0 -251 97 -251 267c0 165 108 268 255 268c141 0 224 -106 224 -246c0 -33 -4 -45 -4 -45h-394zM242 703
c0 44 34 80 78 80s80 -36 80 -80s-36 -78 -80 -78s-78 34 -78 78z" />
    <glyph glyph-name="Eogonek" unicode="&#x118;" 
d="M127 0v705h85h310v-82h-310v-224h280v-82h-280v-235h310v-82c-43 -39 -70 -64 -70 -100c0 -24 18 -43 45 -43c7 0 17 1 25 4l18 -42c-16 -12 -39 -19 -70 -19c-38 0 -88 33 -88 90c0 40 28 81 70 110h-240h-85z" />
    <glyph glyph-name="eogonek" unicode="&#x119;" 
d="M165 311h312c0 75 -55 140 -149 140c-106 0 -163 -81 -163 -140zM159 239c0 -71 54 -166 170 -166c66 0 124 34 160 85l61 -38c-13 -25 -33 -48 -56 -67c-38 -35 -61 -58 -61 -92c0 -24 18 -43 45 -43c7 0 17 1 25 4l18 -42c-16 -12 -39 -19 -70 -19c-38 0 -88 33 -88 90
c0 16 5 32 13 48c-15 -3 -31 -4 -47 -4c-151 0 -251 97 -251 267c0 165 108 268 255 268c141 0 224 -106 224 -246c0 -33 -4 -45 -4 -45h-394z" />
    <glyph glyph-name="Ecaron" unicode="&#x11a;" 
d="M127 0v705h85h310v-82h-310v-224h280v-82h-280v-235h310v-82h-310h-85zM158 935h81l81 -102l81 102h81l-105 -150h-19h-76h-19z" />
    <glyph glyph-name="ecaron" unicode="&#x11b;" 
d="M165 311h312c0 75 -55 140 -149 140c-106 0 -163 -81 -163 -140zM159 239c0 -71 54 -166 170 -166c66 0 124 34 160 85l61 -38c-38 -71 -122 -125 -221 -125c-151 0 -251 97 -251 267c0 165 108 268 255 268c141 0 224 -106 224 -246c0 -33 -4 -45 -4 -45h-394zM158 755
h81l81 -102l81 102h81l-105 -150h-19h-76h-19z" />
    <glyph glyph-name="Gcircumflex" unicode="&#x11c;" 
d="M461 537c-11 25 -49 92 -136 92c-110 0 -180 -101 -180 -276s70 -277 180 -277c130 0 166 124 166 207v7h-185v80h274v-37c0 -145 -43 -338 -255 -338c-185 0 -270 158 -270 358s85 357 270 357c109 0 180 -58 216 -140zM153 785l105 150h19h76h19l105 -150h-81l-81 102
l-81 -102h-81z" />
    <glyph glyph-name="gcircumflex" unicode="&#x11d;" 
d="M247 42h-13c-42 0 -69 -32 -69 -75c0 -55 69 -93 160 -93c107 0 173 50 173 104c0 40 -26 64 -82 64h-169zM215 360c0 -60 51 -95 110 -95s110 35 110 95s-51 95 -110 95s-110 -35 -110 -95zM138 360c0 104 85 170 187 170c46 0 89 -14 122 -38l75 54l41 -56l-69 -51
c12 -23 18 -49 18 -79c0 -104 -85 -170 -187 -170c-28 0 -55 5 -79 14l-12 -6c-21 -11 -29 -24 -29 -43c0 -22 17 -38 42 -38h169c106 0 160 -52 160 -140c0 -107 -111 -178 -251 -178c-156 0 -238 68 -238 168c0 57 26 94 60 117c-13 18 -19 41 -19 70c0 43 23 75 53 93
c-27 29 -43 67 -43 113zM158 605l105 150h19h76h19l105 -150h-81l-81 102l-81 -102h-81z" />
    <glyph glyph-name="Gbreve" unicode="&#x11e;" 
d="M315 847c39 0 73 30 81 78h60c-7 -86 -68 -143 -141 -143s-134 57 -141 143h60c8 -48 42 -78 81 -78zM461 537c-11 25 -49 92 -136 92c-110 0 -180 -101 -180 -276s70 -277 180 -277c130 0 166 124 166 207v7h-185v80h274v-37c0 -145 -43 -338 -255 -338
c-185 0 -270 158 -270 358s85 357 270 357c109 0 180 -58 216 -140z" />
    <glyph glyph-name="gbreve" unicode="&#x11f;" 
d="M247 42h-13c-42 0 -69 -32 -69 -75c0 -55 69 -93 160 -93c107 0 173 50 173 104c0 40 -26 64 -82 64h-169zM320 667c39 0 73 30 81 78h60c-7 -86 -68 -143 -141 -143s-134 57 -141 143h60c8 -48 42 -78 81 -78zM215 360c0 -60 51 -95 110 -95s110 35 110 95
s-51 95 -110 95s-110 -35 -110 -95zM138 360c0 104 85 170 187 170c46 0 89 -14 122 -38l75 54l41 -56l-69 -51c12 -23 18 -49 18 -79c0 -104 -85 -170 -187 -170c-28 0 -55 5 -79 14l-12 -6c-21 -11 -29 -24 -29 -43c0 -22 17 -38 42 -38h169c106 0 160 -52 160 -140
c0 -107 -111 -178 -251 -178c-156 0 -238 68 -238 168c0 57 26 94 60 117c-13 18 -19 41 -19 70c0 43 23 75 53 93c-27 29 -43 67 -43 113z" />
    <glyph glyph-name="Gdotaccent" unicode="&#x120;" 
d="M461 537c-11 25 -49 92 -136 92c-110 0 -180 -101 -180 -276s70 -277 180 -277c130 0 166 124 166 207v7h-185v80h274v-37c0 -145 -43 -338 -255 -338c-185 0 -270 158 -270 358s85 357 270 357c109 0 180 -58 216 -140zM237 883c0 44 34 80 78 80s80 -36 80 -80
s-36 -78 -80 -78s-78 34 -78 78z" />
    <glyph glyph-name="gdotaccent" unicode="&#x121;" 
d="M247 42h-13c-42 0 -69 -32 -69 -75c0 -55 69 -93 160 -93c107 0 173 50 173 104c0 40 -26 64 -82 64h-169zM215 360c0 -60 51 -95 110 -95s110 35 110 95s-51 95 -110 95s-110 -35 -110 -95zM138 360c0 104 85 170 187 170c46 0 89 -14 122 -38l75 54l41 -56l-69 -51
c12 -23 18 -49 18 -79c0 -104 -85 -170 -187 -170c-28 0 -55 5 -79 14l-12 -6c-21 -11 -29 -24 -29 -43c0 -22 17 -38 42 -38h169c106 0 160 -52 160 -140c0 -107 -111 -178 -251 -178c-156 0 -238 68 -238 168c0 57 26 94 60 117c-13 18 -19 41 -19 70c0 43 23 75 53 93
c-27 29 -43 67 -43 113zM242 703c0 44 34 80 78 80s80 -36 80 -80s-36 -78 -80 -78s-78 34 -78 78z" />
    <glyph glyph-name="Itilde" unicode="&#x128;" 
d="M100 635v70h440v-70h-176v-565h176v-70h-440v70h176v565h-176zM240 853c-32 0 -48 -22 -52 -48h-65c0 73 45 118 117 118c69 0 109 -53 160 -53c32 0 48 22 52 48h65c0 -73 -45 -118 -117 -118c-69 0 -109 53 -160 53z" />
    <glyph glyph-name="itilde" unicode="&#x129;" 
d="M93 0v70h207v385h-140v70h220v-70v-385h187v-70h-474zM240 673c-32 0 -48 -22 -52 -48h-65c0 73 45 118 117 118c69 0 109 -53 160 -53c32 0 48 22 52 48h65c0 -73 -45 -118 -117 -118c-69 0 -109 53 -160 53z" />
    <glyph glyph-name="Imacron" unicode="&#x12a;" 
d="M100 635v70h440v-70h-176v-565h176v-70h-440v70h176v565h-176zM170 900h300v-70h-300v70z" />
    <glyph glyph-name="imacron" unicode="&#x12b;" 
d="M93 0v70h207v385h-140v70h220v-70v-385h187v-70h-474zM170 720h300v-70h-300v70z" />
    <glyph glyph-name="Ibreve" unicode="&#x12c;" 
d="M320 847c39 0 73 30 81 78h60c-7 -86 -68 -143 -141 -143s-134 57 -141 143h60c8 -48 42 -78 81 -78zM100 635v70h440v-70h-176v-565h176v-70h-440v70h176v565h-176z" />
    <glyph glyph-name="ibreve" unicode="&#x12d;" 
d="M320 667c39 0 73 30 81 78h60c-7 -86 -68 -143 -141 -143s-134 57 -141 143h60c8 -48 42 -78 81 -78zM93 0v70h207v385h-140v70h220v-70v-385h187v-70h-474z" />
    <glyph glyph-name="Iogonek" unicode="&#x12e;" 
d="M100 635v70h440v-70h-176v-565h176v-70c-43 -39 -70 -64 -70 -100c0 -24 18 -43 45 -43c7 0 17 1 25 4l18 -42c-16 -12 -39 -19 -70 -19c-38 0 -88 33 -88 90c0 40 28 81 70 110h-370v70h176v565h-176z" />
    <glyph glyph-name="iogonek" unicode="&#x12f;" 
d="M242 703c0 44 34 80 78 80s80 -36 80 -80s-36 -78 -80 -78s-78 34 -78 78zM93 0v70h207v385h-140v70h220v-70v-385h187v-70c-43 -39 -70 -64 -70 -100c0 -24 18 -43 45 -43c7 0 17 1 25 4l18 -42c-16 -12 -39 -19 -70 -19c-38 0 -88 33 -88 90c0 40 28 81 70 110h-404z
" />
    <glyph glyph-name="Idotaccent" unicode="&#x130;" 
d="M100 635v70h440v-70h-176v-565h176v-70h-440v70h176v565h-176zM242 883c0 44 34 80 78 80s80 -36 80 -80s-36 -78 -80 -78s-78 34 -78 78z" />
    <glyph glyph-name="dotlessi" unicode="&#x131;" 
d="M93 0v70h207v385h-140v70h220v-70v-385h187v-70h-474z" />
    <glyph glyph-name="Jcircumflex" unicode="&#x134;" 
d="M104 118l63 43c22 -33 63 -86 135 -86c96 0 135 65 135 195v435h85v-435c0 -171 -61 -275 -220 -275c-114 0 -179 76 -198 123zM317 785l105 150h19h76h19l105 -150h-81l-81 102l-81 -102h-81z" />
    <glyph glyph-name="jcircumflex" unicode="&#x135;" 
d="M185 455v70h250v-70v-385v-57c0 -141 -65 -217 -200 -217c-70 0 -141 47 -171 99l54 36c22 -26 55 -60 117 -60c78 0 120 50 120 142v57v385h-170zM213 605l105 150h19h76h19l105 -150h-81l-81 102l-81 -102h-81z" />
    <glyph glyph-name="Lacute" unicode="&#x139;" 
d="M159 0v705h85v-623h310v-82h-310h-85zM145 785l115 150h105l-123 -150h-97z" />
    <glyph glyph-name="lacute" unicode="&#x13a;" 
d="M193 755h85v-537c0 -89 31 -144 112 -144c66 0 91 27 121 63l55 -40c-35 -59 -104 -102 -174 -102c-118 0 -199 59 -199 223v467h-135v70h135zM180 835l115 150h105l-123 -150h-97z" />
    <glyph glyph-name="Lcaron" unicode="&#x13d;" 
d="M159 0v705h85v-623h310v-82h-310h-85zM408 565v190h80l-27 -190h-53z" />
    <glyph glyph-name="lcaron" unicode="&#x13e;" 
d="M193 755h85v-537c0 -89 31 -144 112 -144c66 0 91 27 121 63l55 -40c-35 -59 -104 -102 -174 -102c-118 0 -199 59 -199 223v467h-135v70h135zM348 565v190h80l-27 -190h-53z" />
    <glyph glyph-name="Ldot" unicode="&#x13f;" 
d="M159 0v705h85v-623h310v-82h-310h-85zM444 355c0 47 39 85 86 85s84 -38 84 -85s-37 -85 -84 -85s-86 38 -86 85z" />
    <glyph glyph-name="ldot" unicode="&#x140;" 
d="M193 755h85v-537c0 -89 31 -144 112 -144c66 0 91 27 121 63l55 -40c-35 -59 -104 -102 -174 -102c-118 0 -199 59 -199 223v467h-135v70h135zM485 351c0 47 38 85 85 85s85 -38 85 -85s-38 -85 -85 -85s-85 38 -85 85z" />
    <glyph glyph-name="Lslash" unicode="&#x141;" 
d="M244 390l126 72l30 -52l-156 -90v-238h310v-82h-310h-85v271l-58 -33l-30 52l88 50v365h85v-315z" />
    <glyph glyph-name="lslash" unicode="&#x142;" 
d="M76 350l117 67v268h-135v70h135h85v-289l97 56l30 -52l-127 -73v-179c0 -89 31 -144 112 -144c66 0 91 27 121 63l55 -40c-35 -59 -104 -102 -174 -102c-118 0 -199 59 -199 223v130l-87 -50z" />
    <glyph glyph-name="Nacute" unicode="&#x143;" 
d="M470 0l-295 540h-5v-540h-85v540v165h85l295 -540h5v540h85v-540v-165h-85zM264 785l115 150h105l-123 -150h-97z" />
    <glyph glyph-name="nacute" unicode="&#x144;" 
d="M115 525h75l10 -87c17 43 58 92 150 92c173 0 185 -139 185 -201v-329h-85v329c0 61 -27 121 -110 121c-104 0 -140 -85 -140 -180v-270h-85v525zM274 605l115 150h105l-123 -150h-97z" />
    <glyph glyph-name="Ncaron" unicode="&#x147;" 
d="M470 0l-295 540h-5v-540h-85v540v165h85l295 -540h5v540h85v-540v-165h-85zM158 935h81l81 -102l81 102h81l-105 -150h-19h-76h-19z" />
    <glyph glyph-name="ncaron" unicode="&#x148;" 
d="M115 525h75l10 -87c17 43 58 92 150 92c173 0 185 -139 185 -201v-329h-85v329c0 61 -27 121 -110 121c-104 0 -140 -85 -140 -180v-270h-85v525zM168 755h81l81 -102l81 102h81l-105 -150h-19h-76h-19z" />
    <glyph glyph-name="Omacron" unicode="&#x14c;" 
d="M140 353c0 -175 70 -277 180 -277s180 102 180 277s-70 276 -180 276s-180 -101 -180 -276zM50 353c0 200 85 357 270 357s270 -157 270 -357s-85 -358 -270 -358s-270 158 -270 358zM170 900h300v-70h-300v70z" />
    <glyph glyph-name="omacron" unicode="&#x14d;" 
d="M155 262c0 -115 67 -187 165 -187s165 72 165 187s-67 188 -165 188s-165 -73 -165 -188zM70 262c0 165 105 268 250 268s250 -103 250 -268s-105 -267 -250 -267s-250 102 -250 267zM170 720h300v-70h-300v70z" />
    <glyph glyph-name="Obreve" unicode="&#x14e;" 
d="M320 847c39 0 73 30 81 78h60c-7 -86 -68 -143 -141 -143s-134 57 -141 143h60c8 -48 42 -78 81 -78zM140 353c0 -175 70 -277 180 -277s180 102 180 277s-70 276 -180 276s-180 -101 -180 -276zM50 353c0 200 85 357 270 357s270 -157 270 -357s-85 -358 -270 -358
s-270 158 -270 358z" />
    <glyph glyph-name="obreve" unicode="&#x14f;" 
d="M320 667c39 0 73 30 81 78h60c-7 -86 -68 -143 -141 -143s-134 57 -141 143h60c8 -48 42 -78 81 -78zM155 262c0 -115 67 -187 165 -187s165 72 165 187s-67 188 -165 188s-165 -73 -165 -188zM70 262c0 165 105 268 250 268s250 -103 250 -268s-105 -267 -250 -267
s-250 102 -250 267z" />
    <glyph glyph-name="Ohungarumlaut" unicode="&#x150;" 
d="M140 353c0 -175 70 -277 180 -277s180 102 180 277s-70 276 -180 276s-180 -101 -180 -276zM50 353c0 200 85 357 270 357s270 -157 270 -357s-85 -358 -270 -358s-270 158 -270 358zM356 785l115 150h101l-123 -150h-93zM175 785l115 150h101l-123 -150h-93z" />
    <glyph glyph-name="ohungarumlaut" unicode="&#x151;" 
d="M155 262c0 -115 67 -187 165 -187s165 72 165 187s-67 188 -165 188s-165 -73 -165 -188zM70 262c0 165 105 268 250 268s250 -103 250 -268s-105 -267 -250 -267s-250 102 -250 267zM356 605l115 150h101l-123 -150h-93zM175 605l115 150h101l-123 -150h-93z" />
    <glyph glyph-name="OE" unicode="&#x152;" 
d="M320 81v543c-110 0 -180 -96 -180 -271s70 -272 180 -272zM405 623v-224h160v-82h-160v-235h190v-82h-190h-85c-185 0 -270 153 -270 353s85 352 270 352h25h60h190v-82h-190z" />
    <glyph glyph-name="oe" unicode="&#x153;" 
d="M364 313h188c0 74 -13 138 -85 138c-80 0 -103 -79 -103 -138zM90 262c0 -115 36 -187 104 -187s104 72 104 187s-36 188 -104 188s-104 -73 -104 -188zM14 262c0 166 67 268 175 268c61 0 109 -33 139 -92c26 59 71 92 138 92c125 0 154 -122 154 -235
c0 -34 -4 -54 -4 -54h-251v-3c0 -71 25 -165 109 -165c60 0 81 47 96 75l54 -30c-22 -60 -68 -123 -150 -123c-73 0 -120 32 -146 90c-30 -58 -78 -90 -139 -90c-108 0 -175 102 -175 267z" />
    <glyph glyph-name="Racute" unicode="&#x154;" 
d="M188 625v-240h130c95 0 140 45 140 120s-45 120 -140 120h-130zM103 0v705h85h130c135 0 225 -73 225 -200c0 -100 -58 -169 -151 -192l186 -313h-96l-177 305h-117v-305h-85zM262 785l115 150h105l-123 -150h-97z" />
    <glyph glyph-name="racute" unicode="&#x155;" 
d="M153 525h75l10 -120c27 70 91 127 169 127c82 0 148 -31 183 -105l-83 -40c-11 21 -33 66 -100 66c-89 0 -169 -85 -169 -222v-231h-85v525zM319 605l115 150h105l-123 -150h-97z" />
    <glyph glyph-name="Rcaron" unicode="&#x158;" 
d="M188 625v-240h130c95 0 140 45 140 120s-45 120 -140 120h-130zM103 0v705h85h130c135 0 225 -73 225 -200c0 -100 -58 -169 -151 -192l186 -313h-96l-177 305h-117v-305h-85zM151 935h81l81 -102l81 102h81l-105 -150h-19h-76h-19z" />
    <glyph glyph-name="rcaron" unicode="&#x159;" 
d="M153 525h75l10 -120c27 70 91 127 169 127c82 0 148 -31 183 -105l-83 -40c-11 21 -33 66 -100 66c-89 0 -169 -85 -169 -222v-231h-85v525zM213 755h81l81 -102l81 102h81l-105 -150h-19h-76h-19z" />
    <glyph glyph-name="Sacute" unicode="&#x15a;" 
d="M82 114l71 41c30 -44 89 -80 157 -80c98 0 152 56 152 120c0 36 -12 77 -73 105l-138 62c-66 30 -134 85 -134 177c0 108 88 173 213 173c106 0 174 -65 190 -85l-56 -54c-18 18 -68 57 -134 57s-125 -30 -125 -91c0 -46 36 -79 80 -100l132 -62
c96 -45 133 -108 133 -182c0 -120 -94 -202 -240 -202c-98 0 -191 49 -228 121zM262 785l115 150h105l-123 -150h-97z" />
    <glyph glyph-name="sacute" unicode="&#x15b;" 
d="M279 318l84 -20c133 -32 183 -64 183 -148c0 -97 -95 -155 -226 -155c-130 0 -210 78 -227 106l60 49c24 -32 87 -75 167 -75c85 0 142 28 142 75c0 38 -36 56 -113 74c0 0 -46 11 -75 17c-115 30 -157 73 -157 141c0 84 68 148 203 148c94 0 162 -43 188 -69l-50 -55
c-25 21 -78 45 -138 45c-85 0 -119 -26 -119 -69c0 -30 35 -54 78 -64zM264 605l115 150h105l-123 -150h-97z" />
    <glyph glyph-name="Scircumflex" unicode="&#x15c;" 
d="M82 114l71 41c30 -44 89 -80 157 -80c98 0 152 56 152 120c0 36 -12 77 -73 105l-138 62c-66 30 -134 85 -134 177c0 108 88 173 213 173c106 0 174 -65 190 -85l-56 -54c-18 18 -68 57 -134 57s-125 -30 -125 -91c0 -46 36 -79 80 -100l132 -62
c96 -45 133 -108 133 -182c0 -120 -94 -202 -240 -202c-98 0 -191 49 -228 121zM152 785l105 150h19h76h19l105 -150h-81l-81 102l-81 -102h-81z" />
    <glyph glyph-name="scircumflex" unicode="&#x15d;" 
d="M279 318l84 -20c133 -32 183 -64 183 -148c0 -97 -95 -155 -226 -155c-130 0 -210 78 -227 106l60 49c24 -32 87 -75 167 -75c85 0 142 28 142 75c0 38 -36 56 -113 74c0 0 -46 11 -75 17c-115 30 -157 73 -157 141c0 84 68 148 203 148c94 0 162 -43 188 -69l-50 -55
c-25 21 -78 45 -138 45c-85 0 -119 -26 -119 -69c0 -30 35 -54 78 -64zM158 605l105 150h19h76h19l105 -150h-81l-81 102l-81 -102h-81z" />
    <glyph glyph-name="Scedilla" unicode="&#x15e;" 
d="M82 114l71 41c30 -44 89 -80 157 -80c98 0 152 56 152 120c0 36 -12 77 -73 105l-138 62c-66 30 -134 85 -134 177c0 108 88 173 213 173c106 0 174 -65 190 -85l-56 -54c-18 18 -68 57 -134 57s-125 -30 -125 -91c0 -46 36 -79 80 -100l132 -62
c96 -45 133 -108 133 -182c0 -114 -84 -193 -217 -201l-16 -35c7 1 14 2 20 2c47 -1 92 -31 92 -88s-43 -95 -110 -95c-49 0 -86 24 -101 39l26 37c30 -16 48 -21 75 -21c26 0 50 16 50 40s-22 40 -50 40c-21 0 -31 -3 -42 -7l-33 29l28 60c-83 11 -158 56 -190 119z" />
    <glyph glyph-name="scedilla" unicode="&#x15f;" 
d="M279 318l84 -20c133 -32 183 -64 183 -148c0 -94 -89 -151 -213 -155l-16 -36c7 1 14 2 20 2c47 -1 92 -31 92 -88s-43 -95 -110 -95c-49 0 -86 24 -101 39l26 37c30 -16 48 -21 75 -21c26 0 50 16 50 40s-22 40 -50 40c-21 0 -31 -3 -42 -7l-33 29l30 63
c-103 15 -166 78 -181 103l60 49c24 -32 87 -75 167 -75c85 0 142 28 142 75c0 38 -36 56 -113 74c0 0 -46 11 -75 17c-115 30 -157 73 -157 141c0 84 68 148 203 148c94 0 162 -43 188 -69l-50 -55c-25 21 -78 45 -138 45c-85 0 -119 -26 -119 -69c0 -30 35 -54 78 -64z
" />
    <glyph glyph-name="Scaron" unicode="&#x160;" 
d="M82 114l71 41c30 -44 89 -80 157 -80c98 0 152 56 152 120c0 36 -12 77 -73 105l-138 62c-66 30 -134 85 -134 177c0 108 88 173 213 173c106 0 174 -65 190 -85l-56 -54c-18 18 -68 57 -134 57s-125 -30 -125 -91c0 -46 36 -79 80 -100l132 -62
c96 -45 133 -108 133 -182c0 -120 -94 -202 -240 -202c-98 0 -191 49 -228 121zM155 935h81l81 -102l81 102h81l-105 -150h-19h-76h-19z" />
    <glyph glyph-name="scaron" unicode="&#x161;" 
d="M279 318l84 -20c133 -32 183 -64 183 -148c0 -97 -95 -155 -226 -155c-130 0 -210 78 -227 106l60 49c24 -32 87 -75 167 -75c85 0 142 28 142 75c0 38 -36 56 -113 74c0 0 -46 11 -75 17c-115 30 -157 73 -157 141c0 84 68 148 203 148c94 0 162 -43 188 -69l-50 -55
c-25 21 -78 45 -138 45c-85 0 -119 -26 -119 -69c0 -30 35 -54 78 -64zM158 755h81l81 -102l81 102h81l-105 -150h-19h-76h-19z" />
    <glyph glyph-name="Tcaron" unicode="&#x164;" 
d="M70 625v80h500v-80h-208v-625h-84v625h-208zM158 935h81l81 -102l81 102h81l-105 -150h-19h-76h-19z" />
    <glyph glyph-name="tcaron" unicode="&#x165;" 
d="M73 525h120v150h85v-150h220v-70h-220v-243c0 -92 37 -140 115 -140c62 0 93 33 115 59l56 -37c-30 -52 -101 -99 -171 -99c-135 0 -200 76 -200 217v243h-120v70zM393 585v180h80l-27 -180h-53z" />
    <glyph glyph-name="Utilde" unicode="&#x168;" 
d="M90 270v435h85v-435c0 -134 50 -195 145 -195s145 60 145 195v435h85v-435c0 -187 -79 -275 -230 -275s-230 88 -230 275zM240 853c-32 0 -48 -22 -52 -48h-65c0 73 45 118 117 118c69 0 109 -53 160 -53c32 0 48 22 52 48h65c0 -73 -45 -118 -117 -118
c-69 0 -109 53 -160 53z" />
    <glyph glyph-name="utilde" unicode="&#x169;" 
d="M535 0h-75l-10 87c-17 -43 -58 -92 -150 -92c-173 0 -185 139 -185 201v329h85v-329c0 -61 27 -121 110 -121c104 0 140 85 140 180v270h85v-525zM245 673c-32 0 -48 -22 -52 -48h-65c0 73 45 118 117 118c69 0 109 -53 160 -53c32 0 48 22 52 48h65
c0 -73 -45 -118 -117 -118c-69 0 -109 53 -160 53z" />
    <glyph glyph-name="Umacron" unicode="&#x16a;" 
d="M90 270v435h85v-435c0 -134 50 -195 145 -195s145 60 145 195v435h85v-435c0 -187 -79 -275 -230 -275s-230 88 -230 275zM170 900h300v-70h-300v70z" />
    <glyph glyph-name="umacron" unicode="&#x16b;" 
d="M535 0h-75l-10 87c-17 -43 -58 -92 -150 -92c-173 0 -185 139 -185 201v329h85v-329c0 -61 27 -121 110 -121c104 0 140 85 140 180v270h85v-525zM175 720h300v-70h-300v70z" />
    <glyph glyph-name="Ubreve" unicode="&#x16c;" 
d="M320 847c39 0 73 30 81 78h60c-7 -86 -68 -143 -141 -143s-134 57 -141 143h60c8 -48 42 -78 81 -78zM90 270v435h85v-435c0 -134 50 -195 145 -195s145 60 145 195v435h85v-435c0 -187 -79 -275 -230 -275s-230 88 -230 275z" />
    <glyph glyph-name="ubreve" unicode="&#x16d;" 
d="M325 667c39 0 73 30 81 78h60c-7 -86 -68 -143 -141 -143s-134 57 -141 143h60c8 -48 42 -78 81 -78zM535 0h-75l-10 87c-17 -43 -58 -92 -150 -92c-173 0 -185 139 -185 201v329h85v-329c0 -61 27 -121 110 -121c104 0 140 85 140 180v270h85v-525z" />
    <glyph glyph-name="Uring" unicode="&#x16e;" 
d="M90 270v435h85v-435c0 -134 50 -195 145 -195s145 60 145 195v435h85v-435c0 -187 -79 -275 -230 -275s-230 88 -230 275zM269 891c0 -29 21 -53 51 -53s51 24 51 53s-21 53 -51 53s-51 -24 -51 -53zM204 891c0 64 52 116 116 116s116 -52 116 -116s-52 -116 -116 -116
s-116 52 -116 116z" />
    <glyph glyph-name="uring" unicode="&#x16f;" 
d="M535 0h-75l-10 87c-17 -43 -58 -92 -150 -92c-173 0 -185 139 -185 201v329h85v-329c0 -61 27 -121 110 -121c104 0 140 85 140 180v270h85v-525zM274 711c0 -29 21 -53 51 -53s51 24 51 53s-21 53 -51 53s-51 -24 -51 -53zM209 711c0 64 52 116 116 116
s116 -52 116 -116s-52 -116 -116 -116s-116 52 -116 116z" />
    <glyph glyph-name="Uhungarumlaut" unicode="&#x170;" 
d="M90 270v435h85v-435c0 -134 50 -195 145 -195s145 60 145 195v435h85v-435c0 -187 -79 -275 -230 -275s-230 88 -230 275zM356 785l115 150h101l-123 -150h-93zM175 785l115 150h101l-123 -150h-93z" />
    <glyph glyph-name="uhungarumlaut" unicode="&#x171;" 
d="M535 0h-75l-10 87c-17 -43 -58 -92 -150 -92c-173 0 -185 139 -185 201v329h85v-329c0 -61 27 -121 110 -121c104 0 140 85 140 180v270h85v-525zM361 605l115 150h101l-123 -150h-93zM180 605l115 150h101l-123 -150h-93z" />
    <glyph glyph-name="Uogonek" unicode="&#x172;" 
d="M90 270v435h85v-435c0 -134 50 -195 145 -195s145 60 145 195v435h85v-435c0 -161 -59 -249 -172 -270c-43 -39 -70 -64 -70 -100c0 -24 18 -43 45 -43c7 0 17 1 25 4l18 -42c-16 -12 -39 -19 -70 -19c-38 0 -88 33 -88 90c0 38 25 76 64 105c-139 7 -212 96 -212 275z
" />
    <glyph glyph-name="uogonek" unicode="&#x173;" 
d="M200 196c0 -61 27 -121 110 -121c104 0 140 85 140 180v270h85v-525c-45 -39 -70 -64 -70 -100c0 -24 18 -43 45 -43c7 0 17 1 25 4l18 -42c-16 -12 -39 -19 -70 -19c-38 0 -88 33 -88 90c0 40 24 81 65 110l-10 87c-17 -43 -58 -92 -150 -92c-173 0 -185 139 -185 201
v329h85v-329z" />
    <glyph glyph-name="Wcircumflex" unicode="&#x174;" 
d="M190 0h-59l-105 705h86l76 -570h2h3l90 340h37h37l90 -340h3h2l76 570h86l-105 -705h-59h-37l-90 322h-3h-3l-90 -322h-37zM158 785l105 150h19h76h19l105 -150h-81l-81 102l-81 -102h-81z" />
    <glyph glyph-name="wcircumflex" unicode="&#x175;" 
d="M48 525h84l61 -401h3h3l85 296h36h36l85 -296h3h3l61 401h84l-88 -525h-60h-28l-93 302h-3h-3l-93 -302h-28h-60zM158 605l105 150h19h76h19l105 -150h-81l-81 102l-81 -102h-81z" />
    <glyph glyph-name="Ycircumflex" unicode="&#x176;" 
d="M320 375h2l177 330h93l-230 -423v-282h-84v282l-230 423h93l177 -330h2zM158 785l105 150h19h76h19l105 -150h-81l-81 102l-81 -102h-81z" />
    <glyph glyph-name="ycircumflex" unicode="&#x177;" 
d="M63 525h92l165 -423l165 423h92l-237 -583c-34 -84 -86 -142 -209 -142h-29v73h29c74 0 116 41 135 90l14 34zM158 605l105 150h19h76h19l105 -150h-81l-81 102l-81 -102h-81z" />
    <glyph glyph-name="Ydieresis" unicode="&#x178;" 
d="M320 375h2l177 330h93l-230 -423v-282h-84v282l-230 423h93l177 -330h2zM155 871c0 36 30 66 66 66s66 -30 66 -66s-30 -66 -66 -66s-66 30 -66 66zM353 871c0 36 30 66 66 66s66 -30 66 -66s-30 -66 -66 -66s-66 30 -66 66z" />
    <glyph glyph-name="Zacute" unicode="&#x179;" 
d="M527 0h-414v70l308 550v5h-303v80h404v-72l-308 -548v-5h313v-80zM264 785l115 150h105l-123 -150h-97z" />
    <glyph glyph-name="zacute" unicode="&#x17a;" 
d="M527 0h-414v66l303 381v5h-298v73h404v-68l-303 -379v-5h308v-73zM264 605l115 150h105l-123 -150h-97z" />
    <glyph glyph-name="Zdotaccent" unicode="&#x17b;" 
d="M527 0h-414v70l308 550v5h-303v80h404v-72l-308 -548v-5h313v-80zM242 883c0 44 34 80 78 80s80 -36 80 -80s-36 -78 -80 -78s-78 34 -78 78z" />
    <glyph glyph-name="zdotaccent" unicode="&#x17c;" 
d="M527 0h-414v66l303 381v5h-298v73h404v-68l-303 -379v-5h308v-73zM242 703c0 44 34 80 78 80s80 -36 80 -80s-36 -78 -80 -78s-78 34 -78 78z" />
    <glyph glyph-name="Zcaron" unicode="&#x17d;" 
d="M527 0h-414v70l308 550v5h-303v80h404v-72l-308 -548v-5h313v-80zM158 935h81l81 -102l81 102h81l-105 -150h-19h-76h-19z" />
    <glyph glyph-name="zcaron" unicode="&#x17e;" 
d="M527 0h-414v66l303 381v5h-298v73h404v-68l-303 -379v-5h308v-73zM158 755h81l81 -102l81 102h81l-105 -150h-19h-76h-19z" />
    <glyph glyph-name="uni01CD" unicode="&#x1cd;" 
d="M320 624l-111 -354h222zM607 0h-91l-60 190h-272l-60 -190h-91l233 705h28h51h29zM158 935h81l81 -102l81 102h81l-105 -150h-19h-76h-19z" />
    <glyph glyph-name="uni01CE" unicode="&#x1ce;" 
d="M453 217v33h-95h-98c-67 0 -92 -38 -92 -85s42 -95 120 -95c103 0 165 68 165 147zM452 321c-5 67 -35 129 -134 129c-81 0 -122 -40 -144 -58l-49 51c19 20 85 87 193 87c181 0 215 -122 215 -230v-300h-70l-10 84c-27 -49 -93 -89 -165 -89c-114 0 -200 62 -200 170
c0 105 71 156 172 156h90h102zM173 755h81l81 -102l81 102h81l-105 -150h-19h-76h-19z" />
    <glyph glyph-name="uni01CF" unicode="&#x1cf;" 
d="M100 635v70h440v-70h-176v-565h176v-70h-440v70h176v565h-176zM158 935h81l81 -102l81 102h81l-105 -150h-19h-76h-19z" />
    <glyph glyph-name="uni01D0" unicode="&#x1d0;" 
d="M93 0v70h207v385h-140v70h220v-70v-385h187v-70h-474zM158 755h81l81 -102l81 102h81l-105 -150h-19h-76h-19z" />
    <glyph glyph-name="uni01D1" unicode="&#x1d1;" 
d="M140 353c0 -175 70 -277 180 -277s180 102 180 277s-70 276 -180 276s-180 -101 -180 -276zM50 353c0 200 85 357 270 357s270 -157 270 -357s-85 -358 -270 -358s-270 158 -270 358zM158 935h81l81 -102l81 102h81l-105 -150h-19h-76h-19z" />
    <glyph glyph-name="uni01D2" unicode="&#x1d2;" 
d="M155 262c0 -115 67 -187 165 -187s165 72 165 187s-67 188 -165 188s-165 -73 -165 -188zM70 262c0 165 105 268 250 268s250 -103 250 -268s-105 -267 -250 -267s-250 102 -250 267zM158 755h81l81 -102l81 102h81l-105 -150h-19h-76h-19z" />
    <glyph glyph-name="uni01D3" unicode="&#x1d3;" 
d="M90 270v435h85v-435c0 -134 50 -195 145 -195s145 60 145 195v435h85v-435c0 -187 -79 -275 -230 -275s-230 88 -230 275zM158 935h81l81 -102l81 102h81l-105 -150h-19h-76h-19z" />
    <glyph glyph-name="uni01D4" unicode="&#x1d4;" 
d="M535 0h-75l-10 87c-17 -43 -58 -92 -150 -92c-173 0 -185 139 -185 201v329h85v-329c0 -61 27 -121 110 -121c104 0 140 85 140 180v270h85v-525zM163 755h81l81 -102l81 102h81l-105 -150h-19h-76h-19z" />
    <glyph glyph-name="Gcaron" unicode="&#x1e6;" 
d="M461 537c-11 25 -49 92 -136 92c-110 0 -180 -101 -180 -276s70 -277 180 -277c130 0 166 124 166 207v7h-185v80h274v-37c0 -145 -43 -338 -255 -338c-185 0 -270 158 -270 358s85 357 270 357c109 0 180 -58 216 -140zM153 935h81l81 -102l81 102h81l-105 -150h-19h-76
h-19z" />
    <glyph glyph-name="gcaron" unicode="&#x1e7;" 
d="M247 42h-13c-42 0 -69 -32 -69 -75c0 -55 69 -93 160 -93c107 0 173 50 173 104c0 40 -26 64 -82 64h-169zM215 360c0 -60 51 -95 110 -95s110 35 110 95s-51 95 -110 95s-110 -35 -110 -95zM138 360c0 104 85 170 187 170c46 0 89 -14 122 -38l75 54l41 -56l-69 -51
c12 -23 18 -49 18 -79c0 -104 -85 -170 -187 -170c-28 0 -55 5 -79 14l-12 -6c-21 -11 -29 -24 -29 -43c0 -22 17 -38 42 -38h169c106 0 160 -52 160 -140c0 -107 -111 -178 -251 -178c-156 0 -238 68 -238 168c0 57 26 94 60 117c-13 18 -19 41 -19 70c0 43 23 75 53 93
c-27 29 -43 67 -43 113zM158 755h81l81 -102l81 102h81l-105 -150h-19h-76h-19z" />
    <glyph glyph-name="uni01F0" unicode="&#x1f0;" 
d="M185 455v70h250v-70v-385v-57c0 -141 -65 -217 -200 -217c-70 0 -141 47 -171 99l54 36c22 -26 55 -60 117 -60c78 0 120 50 120 142v57v385h-170zM213 755h81l81 -102l81 102h81l-105 -150h-19h-76h-19z" />
    <glyph glyph-name="uni01F4" unicode="&#x1f4;" 
d="M461 537c-11 25 -49 92 -136 92c-110 0 -180 -101 -180 -276s70 -277 180 -277c130 0 166 124 166 207v7h-185v80h274v-37c0 -145 -43 -338 -255 -338c-185 0 -270 158 -270 358s85 357 270 357c109 0 180 -58 216 -140zM259 785l115 150h105l-123 -150h-97z" />
    <glyph glyph-name="uni01F5" unicode="&#x1f5;" 
d="M247 42h-13c-42 0 -69 -32 -69 -75c0 -55 69 -93 160 -93c107 0 173 50 173 104c0 40 -26 64 -82 64h-169zM215 360c0 -60 51 -95 110 -95s110 35 110 95s-51 95 -110 95s-110 -35 -110 -95zM138 360c0 104 85 170 187 170c46 0 89 -14 122 -38l75 54l41 -56l-69 -51
c12 -23 18 -49 18 -79c0 -104 -85 -170 -187 -170c-28 0 -55 5 -79 14l-12 -6c-21 -11 -29 -24 -29 -43c0 -22 17 -38 42 -38h169c106 0 160 -52 160 -140c0 -107 -111 -178 -251 -178c-156 0 -238 68 -238 168c0 57 26 94 60 117c-13 18 -19 41 -19 70c0 43 23 75 53 93
c-27 29 -43 67 -43 113zM264 605l115 150h105l-123 -150h-97z" />
    <glyph glyph-name="uni01F8" unicode="&#x1f8;" 
d="M470 0l-295 540h-5v-540h-85v540v165h85l295 -540h5v540h85v-540v-165h-85zM376 785h-97l-123 150h105z" />
    <glyph glyph-name="uni01F9" unicode="&#x1f9;" 
d="M115 525h75l10 -87c17 43 58 92 150 92c173 0 185 -139 185 -201v-329h-85v329c0 61 -27 121 -110 121c-104 0 -140 -85 -140 -180v-270h-85v525zM386 605h-97l-123 150h105z" />
    <glyph glyph-name="uni0226" unicode="&#x226;" 
d="M320 624l-111 -354h222zM607 0h-91l-60 190h-272l-60 -190h-91l233 705h28h51h29zM242 883c0 44 34 80 78 80s80 -36 80 -80s-36 -78 -80 -78s-78 34 -78 78z" />
    <glyph glyph-name="uni0227" unicode="&#x227;" 
d="M453 217v33h-95h-98c-67 0 -92 -38 -92 -85s42 -95 120 -95c103 0 165 68 165 147zM452 321c-5 67 -35 129 -134 129c-81 0 -122 -40 -144 -58l-49 51c19 20 85 87 193 87c181 0 215 -122 215 -230v-300h-70l-10 84c-27 -49 -93 -89 -165 -89c-114 0 -200 62 -200 170
c0 105 71 156 172 156h90h102zM257 703c0 44 34 80 78 80s80 -36 80 -80s-36 -78 -80 -78s-78 34 -78 78z" />
    <glyph glyph-name="uni022E" unicode="&#x22e;" 
d="M140 353c0 -175 70 -277 180 -277s180 102 180 277s-70 276 -180 276s-180 -101 -180 -276zM50 353c0 200 85 357 270 357s270 -157 270 -357s-85 -358 -270 -358s-270 158 -270 358zM242 883c0 44 34 80 78 80s80 -36 80 -80s-36 -78 -80 -78s-78 34 -78 78z" />
    <glyph glyph-name="uni022F" unicode="&#x22f;" 
d="M155 262c0 -115 67 -187 165 -187s165 72 165 187s-67 188 -165 188s-165 -73 -165 -188zM70 262c0 165 105 268 250 268s250 -103 250 -268s-105 -267 -250 -267s-250 102 -250 267zM242 703c0 44 34 80 78 80s80 -36 80 -80s-36 -78 -80 -78s-78 34 -78 78z" />
    <glyph glyph-name="uni0232" unicode="&#x232;" 
d="M320 375h2l177 330h93l-230 -423v-282h-84v282l-230 423h93l177 -330h2zM170 900h300v-70h-300v70z" />
    <glyph glyph-name="uni0233" unicode="&#x233;" 
d="M63 525h92l165 -423l165 423h92l-237 -583c-34 -84 -86 -142 -209 -142h-29v73h29c74 0 116 41 135 90l14 34zM170 720h300v-70h-300v70z" />
    <glyph glyph-name="uni0237" unicode="&#x237;" 
d="M185 455v70h250v-70v-385v-57c0 -141 -65 -217 -200 -217c-70 0 -141 47 -171 99l54 36c22 -26 55 -60 117 -60c78 0 120 50 120 142v57v385h-170z" />
    <glyph glyph-name="ring" unicode="&#x2da;" 
d="M271 711c0 -28 21 -51 49 -51s49 23 49 51s-21 51 -49 51s-49 -23 -49 -51zM204 711c0 64 52 116 116 116s116 -52 116 -116s-52 -116 -116 -116s-116 52 -116 116z" />
    <glyph glyph-name="ogonek" unicode="&#x2db;" 
d="M533 0c-43 -39 -70 -64 -70 -100c0 -24 18 -43 45 -43c7 0 17 1 25 4l18 -42c-16 -12 -39 -19 -70 -19c-38 0 -88 33 -88 90c0 40 28 81 70 110h70z" />
    <glyph glyph-name="gravecomb" unicode="&#x300;" 
d="M356 605h-97l-123 150h105z" />
    <glyph glyph-name="acutecomb" unicode="&#x301;" 
d="M284 605l115 150h105l-123 -150h-97z" />
    <glyph glyph-name="uni0302" unicode="&#x302;" 
d="M158 605l105 150h19h76h19l105 -150h-81l-81 102l-81 -102h-81z" />
    <glyph glyph-name="tildecomb" unicode="&#x303;" 
d="M240 673c-32 0 -48 -22 -52 -48h-65c0 73 45 118 117 118c69 0 109 -53 160 -53c32 0 48 22 52 48h65c0 -73 -45 -118 -117 -118c-69 0 -109 53 -160 53z" />
    <glyph glyph-name="uni0304" unicode="&#x304;" 
d="M170 720h300v-70h-300v70z" />
    <glyph glyph-name="uni0305" unicode="&#x305;" horiz-adv-x="0" 
d="M0 1020h640v-80h-640v80z" />
    <glyph glyph-name="uni0306" unicode="&#x306;" 
d="M320 667c39 0 73 30 81 78h60c-7 -86 -68 -143 -141 -143s-134 57 -141 143h60c8 -48 42 -78 81 -78z" />
    <glyph glyph-name="uni0307" unicode="&#x307;" 
d="M242 703c0 44 34 80 78 80s80 -36 80 -80s-36 -78 -80 -78s-78 34 -78 78z" />
    <glyph glyph-name="uni0308" unicode="&#x308;" 
d="M155 691c0 36 30 66 66 66s66 -30 66 -66s-30 -66 -66 -66s-66 30 -66 66zM353 691c0 36 30 66 66 66s66 -30 66 -66s-30 -66 -66 -66s-66 30 -66 66z" />
    <glyph glyph-name="uni030A" unicode="&#x30a;" 
d="M269 711c0 -29 21 -53 51 -53s51 24 51 53s-21 53 -51 53s-51 -24 -51 -53zM204 711c0 64 52 116 116 116s116 -52 116 -116s-52 -116 -116 -116s-116 52 -116 116z" />
    <glyph glyph-name="uni030B" unicode="&#x30b;" 
d="M376 605l115 150h101l-123 -150h-93zM195 605l115 150h101l-123 -150h-93z" />
    <glyph glyph-name="uni030C" unicode="&#x30c;" 
d="M158 755h81l81 -102l81 102h81l-105 -150h-19h-76h-19z" />
    <glyph glyph-name="uni0327" unicode="&#x327;" 
d="M278 18h61l-27 -59c7 1 14 2 20 2c47 -1 92 -31 92 -88s-43 -95 -110 -95c-49 0 -86 24 -101 39l26 37c30 -16 48 -21 75 -21c26 0 50 16 50 40s-22 40 -50 40c-21 0 -31 -3 -42 -7l-33 29z" />
    <glyph glyph-name="uni0328" unicode="&#x328;" 
d="M533 0c-43 -39 -70 -64 -70 -100c0 -24 18 -43 45 -43c7 0 17 1 25 4l18 -42c-16 -12 -39 -19 -70 -19c-38 0 -88 33 -88 90c0 40 28 81 70 110h70z" />
    <glyph glyph-name="uni0332" unicode="&#x332;" horiz-adv-x="0" 
d="M0 -260h640v-80h-640v80z" />
    <glyph glyph-name="endash" unicode="&#x2013;" 
d="M110 370h420v-80h-420v80z" />
    <glyph glyph-name="emdash" unicode="&#x2014;" 
d="M0 370h640v-80h-640v80z" />
    <glyph glyph-name="uni2015" unicode="&#x2015;" horiz-adv-x="1280" 
d="M140 370h1000v-80h-1000v80z" />
    <glyph glyph-name="quoteleft" unicode="&#x2018;" 
d="M317 712c50 0 79 -34 79 -71c0 -36 -30 -73 -77 -73c-54 0 -83 46 -83 110c0 112 91 186 145 217l30 -47c-40 -27 -86 -82 -94 -136z" />
    <glyph glyph-name="quoteright" unicode="&#x2019;" 
d="M322 660c-50 0 -79 34 -79 71c0 36 30 73 77 73c54 0 83 -46 83 -110c0 -112 -91 -186 -145 -217l-30 47c40 27 86 82 94 136z" />
    <glyph glyph-name="quotesinglbase" unicode="&#x201a;" 
d="M322 9c-50 0 -79 34 -79 71c0 36 30 73 77 73c54 0 83 -46 83 -110c0 -112 -91 -186 -145 -217l-30 47c40 27 86 82 94 136z" />
    <glyph glyph-name="quotereversed" unicode="&#x201b;" 
d="M318 660c8 -54 54 -109 94 -136l-30 -47c-54 31 -145 105 -145 217c0 64 29 110 83 110c47 0 77 -37 77 -73c0 -37 -29 -71 -79 -71z" />
    <glyph glyph-name="quotedblleft" unicode="&#x201c;" 
d="M206 712c50 0 79 -34 79 -71c0 -36 -30 -73 -77 -73c-54 0 -83 46 -83 110c0 112 91 186 145 217l30 -47c-40 -27 -86 -82 -94 -136zM421 712c50 0 79 -34 79 -71c0 -36 -30 -73 -77 -73c-54 0 -83 46 -83 110c0 112 91 186 145 217l30 -47c-40 -27 -86 -82 -94 -136z
" />
    <glyph glyph-name="quotedblright" unicode="&#x201d;" 
d="M219 660c-50 0 -79 34 -79 71c0 36 30 73 77 73c54 0 83 -46 83 -110c0 -112 -91 -186 -145 -217l-30 47c40 27 86 82 94 136zM434 660c-50 0 -79 34 -79 71c0 36 30 73 77 73c54 0 83 -46 83 -110c0 -112 -91 -186 -145 -217l-30 47c40 27 86 82 94 136z" />
    <glyph glyph-name="quotedblbase" unicode="&#x201e;" 
d="M219 9c-50 0 -79 34 -79 71c0 36 30 73 77 73c54 0 83 -46 83 -110c0 -112 -91 -186 -145 -217l-30 47c40 27 86 82 94 136zM434 9c-50 0 -79 34 -79 71c0 36 30 73 77 73c54 0 83 -46 83 -110c0 -112 -91 -186 -145 -217l-30 47c40 27 86 82 94 136z" />
    <glyph glyph-name="uni201F" unicode="&#x201f;" 
d="M206 660c8 -54 54 -109 94 -136l-30 -47c-54 31 -145 105 -145 217c0 64 29 110 83 110c47 0 77 -37 77 -73c0 -37 -29 -71 -79 -71zM421 660c8 -54 54 -109 94 -136l-30 -47c-54 31 -145 105 -145 217c0 64 29 110 83 110c47 0 77 -37 77 -73c0 -37 -29 -71 -79 -71z
" />
    <glyph glyph-name="bullet" unicode="&#x2022;" 
d="M177 351c0 81 64 147 143 147s143 -66 143 -147s-64 -147 -143 -147s-143 66 -143 147z" />
    <glyph glyph-name="ellipsis" unicode="&#x2026;" horiz-adv-x="1280" 
d="M875 80c0 47 38 85 85 85s85 -38 85 -85s-38 -85 -85 -85s-85 38 -85 85zM555 80c0 47 38 85 85 85s85 -38 85 -85s-38 -85 -85 -85s-85 38 -85 85zM235 80c0 47 38 85 85 85s85 -38 85 -85s-38 -85 -85 -85s-85 38 -85 85z" />
    <glyph glyph-name="guilsinglleft" unicode="&#x2039;" 
d="M200 340l216 218v-119l-132 -131v-2v-2l132 -131v-119l-216 218v34v34z" />
    <glyph glyph-name="guilsinglright" unicode="&#x203a;" 
d="M440 340v-34v-34l-216 -218v119l132 131v2v2l-132 131v119z" />
    <glyph glyph-name="Euro" unicode="&#x20ac;" 
d="M513 537c-11 25 -49 92 -136 92c-85 0 -146 -60 -169 -168h242l-20 -75h-232c-1 -11 -1 -22 -1 -33c0 -13 0 -25 1 -37h214l-20 -75h-184c24 -106 85 -165 169 -165c87 0 125 68 136 92l80 -33c-36 -82 -107 -140 -216 -140c-149 0 -233 102 -260 246h-65v75h56
c-1 12 -1 24 -1 37c0 11 0 22 1 33h-56v75h64c26 146 111 249 261 249c109 0 180 -58 216 -140z" />
    <glyph glyph-name="arrowleft" unicode="&#x2190;" 
d="M180 370h410v-80h-410l180 -199l-56 -50l-254 289l254 289l56 -50z" />
    <glyph glyph-name="arrowup" unicode="&#x2191;" 
d="M280 575l-199 -180l-50 56l289 254l289 -254l-50 -56l-199 180v-410h-80v410z" />
    <glyph glyph-name="arrowright" unicode="&#x2192;" 
d="M460 370l-180 199l56 50l254 -289l-254 -289l-56 50l180 199h-410v80h410z" />
    <glyph glyph-name="arrowdown" unicode="&#x2193;" 
d="M360 130l199 180l50 -56l-289 -254l-289 254l50 56l199 -180v410h80v-410z" />
    <glyph glyph-name="uni2196" unicode="&#x2196;" 
d="M188 629l350 -349l-53 -53l-349 350l4 -292h-80v420h420v-80z" />
    <glyph glyph-name="uni2197" unicode="&#x2197;" 
d="M504 577l-349 -350l-53 53l350 349l-292 -4v80h420v-420h-80z" />
    <glyph glyph-name="uni2198" unicode="&#x2198;" 
d="M452 76l-350 349l53 53l349 -350l-4 292h80v-420h-420v80z" />
    <glyph glyph-name="uni2199" unicode="&#x2199;" 
d="M136 128l349 350l53 -53l-350 -349l292 4v-80h-420v420h80z" />
    <glyph glyph-name="uni21B2" unicode="&#x21b2;" 
d="M500 705h80v-415h-80h-350l180 -199l-56 -50l-254 289l254 289l56 -50l-180 -199h350v335z" />
    <glyph glyph-name="uni21B3" unicode="&#x21b3;" 
d="M140 705v-335h350l-180 199l56 50l254 -289l-254 -289l-56 50l180 199h-350h-80v415h80z" />
    <glyph glyph-name="uni23B8" unicode="&#x23b8;" 
d="M320 940v-1200h320v-80h-320h-85v1359h85v1h320v-80h-320z" />
    <glyph glyph-name="uni23B9" unicode="&#x23b9;" 
d="M320 -260v1200h-320v80h320h85v-1359h-85v-1h-320v80h320z" />
    <glyph glyph-name="uni256D" unicode="&#x256d;" horiz-adv-x="0" 
d="M640 1020v-80c-331 0 -600 -269 -600 -600h-80c0 375 305 680 680 680z" />
    <glyph glyph-name="uni256E" unicode="&#x256e;" horiz-adv-x="0" 
d="M680 340h-80c0 331 -269 600 -600 600v80c375 0 680 -305 680 -680z" />
    <glyph glyph-name="uni256F" unicode="&#x256f;" horiz-adv-x="0" 
d="M0 -340v80c331 0 600 269 600 600h80c0 -375 -305 -680 -680 -680z" />
    <glyph glyph-name="uni2570" unicode="&#x2570;" horiz-adv-x="0" 
d="M-40 340h80c0 -331 269 -600 600 -600v-80c-375 0 -680 305 -680 680z" />
    <glyph glyph-name="H18533" unicode="&#x25cf;" 
d="M85 351c0 130 105 235 235 235s235 -105 235 -235s-105 -235 -235 -235s-235 105 -235 235z" />
    <glyph glyph-name="smileyhappy" unicode="&#x263a;" 
d="M320 182c-36 0 -72 21 -83 73l32 12c11 -22 26 -35 51 -35s40 13 51 35l32 -12c-11 -52 -47 -73 -83 -73zM336 383c0 52 43 95 95 95s95 -43 95 -95s-43 -95 -95 -95s-95 43 -95 95zM115 383c0 52 43 95 95 95s95 -43 95 -95s-43 -95 -95 -95s-95 43 -95 95zM362 393
c0 -24 19 -43 43 -43s43 19 43 43s-19 43 -43 43s-43 -19 -43 -43zM192 393c0 -24 19 -43 43 -43s43 19 43 43s-19 43 -43 43s-43 -19 -43 -43zM76 351c0 -135 109 -244 244 -244s244 109 244 244s-109 244 -244 244s-244 -109 -244 -244zM6 351c0 173 140 313 313 313
s313 -140 313 -313s-140 -313 -313 -313s-313 140 -313 313z" />
    <glyph glyph-name="uni2713" unicode="&#x2713;" 
d="M552 154l-56 -56l-176 176l-176 -176l-56 56l176 176l-176 176l56 56l176 -176l176 176l56 -56l-176 -176z" />
    <glyph glyph-name="uni2714" unicode="&#x2714;" 
d="M188 172l-183 183l57 57l183 -183l333 333l57 -57l-333 -333l-57 -57z" />
    <glyph glyph-name="uni27F5" unicode="&#x27f5;" horiz-adv-x="1280" 
d="M240 290l180 -199l-56 -50l-254 289l254 289l56 -50l-180 -199h930v-80h-930z" />
    <glyph glyph-name="uni27F6" unicode="&#x27f6;" horiz-adv-x="1280" 
d="M1040 370l-180 199l56 50l254 -289l-254 -289l-56 50l180 199h-930v80h930z" />
    <glyph glyph-name="uni2B24" unicode="&#x2b24;" 
d="M-36 351c0 197 159 356 356 356s356 -159 356 -356s-159 -356 -356 -356s-356 159 -356 356z" />
    <glyph glyph-name="uni301C" unicode="&#x301c;" 
d="M0 285l-50 50l50 50l80 -80l160 160l160 -160l160 160l80 -80l50 -50l-50 -50l-80 80l-160 -160l-160 160l-160 -160z" />
    <glyph glyph-name="uni3030" unicode="&#x3030;" 
d="M0 383c45 -45 81 -106 161 -106c118 0 157 176 318 176c80 0 131 -40 161 -70c20 -21 54 -65 54 -65l-54 -51c-45 45 -81 106 -161 106c-118 0 -157 -176 -318 -176c-80 0 -131 40 -161 70c-20 21 -54 65 -54 65z" />
    <glyph glyph-name="a.alt" 
d="M475 263c0 110 -60 187 -155 187c-103 0 -165 -72 -165 -187s62 -188 165 -188c95 0 155 78 155 188zM550 525v-525h-70l-15 76c-31 -48 -81 -81 -160 -81c-148 0 -235 103 -235 268s90 267 235 267c79 0 129 -32 160 -80l10 75h75z" />
    <glyph glyph-name="g.alt" 
d="M465 450l10 75h75v-455v-22v-7c0 -151 -103 -245 -245 -245c-101 0 -172 55 -214 102l47 52c44 -40 99 -74 167 -74c105 0 160 70 160 167v5v22v5c-31 -48 -81 -80 -160 -80c-148 0 -235 103 -235 268s90 267 235 267c79 0 129 -32 160 -80zM475 263
c0 110 -60 187 -155 187c-103 0 -165 -72 -165 -187s62 -188 165 -188c95 0 155 78 155 188z" />
    <glyph glyph-name="u1F60A" unicode="&#x1f60a;" horiz-adv-x="646" 
d="M631 366h78c0 -215 -174 -389 -389 -389s-389 174 -389 389h78c0 -172 139 -311 311 -311s311 139 311 311zM507 538c0 33 -27 60 -60 60s-60 -27 -60 -60s27 -60 60 -60s60 27 60 60zM607 509c0 -72 -59 -131 -131 -131s-131 59 -131 131s59 131 131 131
s131 -59 131 -131zM133 538c0 -33 27 -60 60 -60s60 27 60 60s-27 60 -60 60s-60 -27 -60 -60zM33 509c0 72 59 131 131 131s131 -59 131 -131s-59 -131 -131 -131s-131 59 -131 131z" />
    <glyph glyph-name="u1F440" unicode="&#x1f440;" horiz-adv-x="1280" 
d="M1045 229c0 -23 18 -41 41 -41s41 18 41 41s-18 41 -41 41s-41 -18 -41 -41zM683 357c0 151 123 274 274 274s273 -123 273 -274s-122 -273 -273 -273s-274 122 -274 273zM775 427c0 -66 54 -120 120 -120s120 54 120 120s-54 120 -120 120s-120 -54 -120 -120zM412 229
c0 -23 18 -41 41 -41s41 18 41 41s-18 41 -41 41s-41 -18 -41 -41zM50 357c0 151 123 274 274 274s273 -123 273 -274s-122 -273 -273 -273s-274 122 -274 273zM142 427c0 -66 54 -120 120 -120s120 54 120 120s-54 120 -120 120s-120 -54 -120 -120z" />
    <glyph glyph-name="u1F441" unicode="&#x1f441;" 
d="M414 229c0 -23 18 -41 41 -41s41 18 41 41s-18 41 -41 41s-41 -18 -41 -41zM52 357c0 151 123 274 274 274s273 -123 273 -274s-122 -273 -273 -273s-274 122 -274 273zM144 427c0 -66 54 -120 120 -120s120 54 120 120s-54 120 -120 120s-120 -54 -120 -120z" />
    <glyph glyph-name="uni2B55" unicode="&#x2b55;" 
d="M56 351c0 -146 118 -270 264 -270s265 124 265 270s-119 269 -265 269s-264 -123 -264 -269zM-36 351c0 197 159 356 356 356s356 -159 356 -356s-159 -356 -356 -356s-356 159 -356 356z" />
    <glyph glyph-name="uni2B1B" unicode="&#x2b1b;" 
d="M-6 677h652v-652h-652v652z" />
    <glyph glyph-name="uni2B1C" unicode="&#x2b1c;" 
d="M84 592v-482h472v482h-472zM-6 677h652v-652h-652v652z" />
    <glyph glyph-name="uni2B25" unicode="&#x2b25;" 
d="M-76 351l396 396l396 -396l-396 -396z" />
    <glyph glyph-name="uni2B26" unicode="&#x2b26;" 
d="M48 351l272 -272l272 272l-272 272zM-76 351l396 396l396 -396l-396 -396z" />
    <glyph glyph-name="uni2B22" unicode="&#x2b22;" 
d="M320 751l346 -200v-400l-346 -200l-346 200v400z" />
    <glyph glyph-name="uni2B21" unicode="&#x2b21;" 
d="M320 644l-256 -147v-292l256 -147l256 147v292zM320 751l346 -200v-400l-346 -200l-346 200v400z" />
    <glyph glyph-name="triagup" unicode="&#x25b2;" 
d="M320 714l400 -694h-799z" />
    <glyph glyph-name="NameMe.65551" unicode="&#x25b3;" 
d="M320 544l-249 -439h499zM320 714l400 -694h-799z" />
    <glyph glyph-name="anticopyright" horiz-adv-x="1280" 
d="M469 129c47 -38 106 -61 171 -61c153 0 278 130 278 283c0 63 -21 122 -57 170l-257 -257c11 -5 23 -9 36 -9c37 0 59 13 78 34l44 -40c-16 -24 -62 -59 -122 -59c-31 0 -60 9 -84 26zM419 181l392 392c-47 38 -107 60 -171 60c-153 0 -277 -129 -277 -282
c0 -63 21 -122 56 -170zM668 508l-179 -179s-1 15 -1 22c0 93 67 160 152 160c10 0 19 -1 28 -3zM284 351c0 197 159 356 356 356s356 -159 356 -356s-159 -356 -356 -356s-356 159 -356 356z" />
    <glyph glyph-name="l.alt" 
d="M272 755h85v-680h215v-75h-215h-85v685h-175v70h175z" />
    <glyph glyph-name="t.alt" 
d="M83 525h120v150h85v-150h220v-70h-220v-380h220v-75h-220h-85v455h-120v70z" />
    <glyph glyph-name="f.alt" 
d="M313 485h205v-70h-205v-415h-85v415h-133v70h133v270h85h205v-70h-205v-200z" />
    <glyph glyph-name="y.alt" 
d="M578 525l-216 -527l60 -154v-44h-62h-239v75h208l-266 650h92l166 -423l165 423h92z" />
    <glyph glyph-name="j.alt" 
d="M287 703c0 44 34 80 78 80s80 -36 80 -80s-36 -78 -80 -78s-78 34 -78 78zM185 455v70h250v-70v-385v-270h-80h-217v70h217v200v385h-170z" />
    <glyph glyph-name="g.alt2" 
d="M140 -30c0 -74 109 -95 180 -95s180 21 180 95s-109 95 -180 95s-180 -21 -180 -95zM210 360c0 -60 51 -95 110 -95s110 35 110 95s-51 95 -110 95s-110 -35 -110 -95zM133 360c0 104 85 170 187 170s187 -66 187 -170c0 -90 -63 -151 -147 -166v-56
c106 -10 220 -60 220 -168c0 -121 -146 -170 -260 -170s-260 49 -260 170c0 108 114 158 220 168v56c-83 15 -147 76 -147 166z" />
    <glyph glyph-name="r.alt" 
d="M153 525h75l10 -120v-1c27 68 91 121 169 121h150v-75h-150c-89 0 -169 -82 -169 -219v-231h-85v525z" />
    <glyph glyph-name="gcircumflex.alt2" 
d="M140 -30c0 -74 109 -95 180 -95s180 21 180 95s-109 95 -180 95s-180 -21 -180 -95zM210 360c0 -60 51 -95 110 -95s110 35 110 95s-51 95 -110 95s-110 -35 -110 -95zM133 360c0 104 85 170 187 170s187 -66 187 -170c0 -90 -63 -151 -147 -166v-56
c106 -10 220 -60 220 -168c0 -121 -146 -170 -260 -170s-260 49 -260 170c0 108 114 158 220 168v56c-83 15 -147 76 -147 166zM158 605l105 150h19h76h19l105 -150h-81l-81 102l-81 -102h-81z" />
    <glyph glyph-name="agrave.alt" 
d="M475 263c0 110 -60 187 -155 187c-103 0 -165 -72 -165 -187s62 -188 165 -188c95 0 155 78 155 188zM550 525v-525h-70l-15 76c-31 -48 -81 -81 -160 -81c-148 0 -235 103 -235 268s90 267 235 267c79 0 129 -32 160 -80l10 75h75zM372 605h-97l-123 150h105z" />
    <glyph glyph-name="aacute.alt" 
d="M475 263c0 110 -60 187 -155 187c-103 0 -165 -72 -165 -187s62 -188 165 -188c95 0 155 78 155 188zM550 525v-525h-70l-15 76c-31 -48 -81 -81 -160 -81c-148 0 -235 103 -235 268s90 267 235 267c79 0 129 -32 160 -80l10 75h75zM260 605l115 150h105l-123 -150h-97z
" />
    <glyph glyph-name="adieresis.alt" 
d="M475 263c0 110 -60 187 -155 187c-103 0 -165 -72 -165 -187s62 -188 165 -188c95 0 155 78 155 188zM550 525v-525h-70l-15 76c-31 -48 -81 -81 -160 -81c-148 0 -235 103 -235 268s90 267 235 267c79 0 129 -32 160 -80l10 75h75zM151 691c0 36 30 66 66 66
s66 -30 66 -66s-30 -66 -66 -66s-66 30 -66 66zM349 691c0 36 30 66 66 66s66 -30 66 -66s-30 -66 -66 -66s-66 30 -66 66z" />
    <glyph glyph-name="acircumflex.alt" 
d="M475 263c0 110 -60 187 -155 187c-103 0 -165 -72 -165 -187s62 -188 165 -188c95 0 155 78 155 188zM550 525v-525h-70l-15 76c-31 -48 -81 -81 -160 -81c-148 0 -235 103 -235 268s90 267 235 267c79 0 129 -32 160 -80l10 75h75zM154 605l105 150h19h76h19l105 -150
h-81l-81 102l-81 -102h-81z" />
    <glyph glyph-name="atilde.alt" 
d="M475 263c0 110 -60 187 -155 187c-103 0 -165 -72 -165 -187s62 -188 165 -188c95 0 155 78 155 188zM550 525v-525h-70l-15 76c-31 -48 -81 -81 -160 -81c-148 0 -235 103 -235 268s90 267 235 267c79 0 129 -32 160 -80l10 75h75zM236 673c-32 0 -48 -22 -52 -48h-65
c0 73 45 118 117 118c69 0 109 -53 160 -53c32 0 48 22 52 48h65c0 -73 -45 -118 -117 -118c-69 0 -109 53 -160 53z" />
    <glyph glyph-name="aring.alt" 
d="M475 263c0 110 -60 187 -155 187c-103 0 -165 -72 -165 -187s62 -188 165 -188c95 0 155 78 155 188zM550 525v-525h-70l-15 76c-31 -48 -81 -81 -160 -81c-148 0 -235 103 -235 268s90 267 235 267c79 0 129 -32 160 -80l10 75h75zM265 711c0 -29 21 -53 51 -53
s51 24 51 53s-21 53 -51 53s-51 -24 -51 -53zM200 711c0 64 52 116 116 116s116 -52 116 -116s-52 -116 -116 -116s-116 52 -116 116z" />
    <glyph glyph-name="amacron.alt" 
d="M475 263c0 110 -60 187 -155 187c-103 0 -165 -72 -165 -187s62 -188 165 -188c95 0 155 78 155 188zM550 525v-525h-70l-15 76c-31 -48 -81 -81 -160 -81c-148 0 -235 103 -235 268s90 267 235 267c79 0 129 -32 160 -80l10 75h75zM166 720h300v-70h-300v70z" />
    <glyph glyph-name="abreve.alt" 
d="M316 667c39 0 73 30 81 78h60c-7 -86 -68 -143 -141 -143s-134 57 -141 143h60c8 -48 42 -78 81 -78zM475 263c0 110 -60 187 -155 187c-103 0 -165 -72 -165 -187s62 -188 165 -188c95 0 155 78 155 188zM550 525v-525h-70l-15 76c-31 -48 -81 -81 -160 -81
c-148 0 -235 103 -235 268s90 267 235 267c79 0 129 -32 160 -80l10 75h75z" />
    <glyph glyph-name="uni01CE.alt" 
d="M475 263c0 110 -60 187 -155 187c-103 0 -165 -72 -165 -187s62 -188 165 -188c95 0 155 78 155 188zM550 525v-525h-70l-15 76c-31 -48 -81 -81 -160 -81c-148 0 -235 103 -235 268s90 267 235 267c79 0 129 -32 160 -80l10 75h75zM154 755h81l81 -102l81 102h81
l-105 -150h-19h-76h-19z" />
    <glyph glyph-name="uni0227.alt" 
d="M475 263c0 110 -60 187 -155 187c-103 0 -165 -72 -165 -187s62 -188 165 -188c95 0 155 78 155 188zM550 525v-525h-70l-15 76c-31 -48 -81 -81 -160 -81c-148 0 -235 103 -235 268s90 267 235 267c79 0 129 -32 160 -80l10 75h75zM238 703c0 44 34 80 78 80
s80 -36 80 -80s-36 -78 -80 -78s-78 34 -78 78z" />
    <glyph glyph-name="aogonek.alt" 
d="M480 0l-15 76c-31 -48 -81 -81 -160 -81c-148 0 -235 103 -235 268s90 267 235 267c79 0 129 -32 160 -80l10 75h75v-525c-43 -39 -70 -64 -70 -100c0 -24 18 -43 45 -43c7 0 17 1 25 4l18 -42c-16 -12 -39 -19 -70 -19c-38 0 -88 33 -88 90c0 40 28 81 70 110zM475 263
c0 110 -60 187 -155 187c-103 0 -165 -72 -165 -187s62 -188 165 -188c95 0 155 78 155 188z" />
    <glyph glyph-name="gcircumflex.alt" 
d="M465 450l10 75h75v-455v-22v-7c0 -151 -103 -245 -245 -245c-101 0 -172 55 -214 102l47 52c44 -40 99 -74 167 -74c105 0 160 70 160 167v5v22v5c-31 -48 -81 -80 -160 -80c-148 0 -235 103 -235 268s90 267 235 267c79 0 129 -32 160 -80zM475 263
c0 110 -60 187 -155 187c-103 0 -165 -72 -165 -187s62 -188 165 -188c95 0 155 78 155 188zM154 605l105 150h19h76h19l105 -150h-81l-81 102l-81 -102h-81z" />
    <glyph glyph-name="gbreve.alt" 
d="M465 450l10 75h75v-455v-22v-7c0 -151 -103 -245 -245 -245c-101 0 -172 55 -214 102l47 52c44 -40 99 -74 167 -74c105 0 160 70 160 167v5v22v5c-31 -48 -81 -80 -160 -80c-148 0 -235 103 -235 268s90 267 235 267c79 0 129 -32 160 -80zM316 667c39 0 73 30 81 78h60
c-7 -86 -68 -143 -141 -143s-134 57 -141 143h60c8 -48 42 -78 81 -78zM475 263c0 110 -60 187 -155 187c-103 0 -165 -72 -165 -187s62 -188 165 -188c95 0 155 78 155 188z" />
    <glyph glyph-name="gdotaccent.alt" 
d="M465 450l10 75h75v-455v-22v-7c0 -151 -103 -245 -245 -245c-101 0 -172 55 -214 102l47 52c44 -40 99 -74 167 -74c105 0 160 70 160 167v5v22v5c-31 -48 -81 -80 -160 -80c-148 0 -235 103 -235 268s90 267 235 267c79 0 129 -32 160 -80zM475 263
c0 110 -60 187 -155 187c-103 0 -165 -72 -165 -187s62 -188 165 -188c95 0 155 78 155 188zM238 703c0 44 34 80 78 80s80 -36 80 -80s-36 -78 -80 -78s-78 34 -78 78z" />
    <glyph glyph-name="gcaron.alt" 
d="M465 450l10 75h75v-455v-22v-7c0 -151 -103 -245 -245 -245c-101 0 -172 55 -214 102l47 52c44 -40 99 -74 167 -74c105 0 160 70 160 167v5v22v5c-31 -48 -81 -80 -160 -80c-148 0 -235 103 -235 268s90 267 235 267c79 0 129 -32 160 -80zM475 263
c0 110 -60 187 -155 187c-103 0 -165 -72 -165 -187s62 -188 165 -188c95 0 155 78 155 188zM154 755h81l81 -102l81 102h81l-105 -150h-19h-76h-19z" />
    <glyph glyph-name="uni01f5.alt" 
d="M465 450l10 75h75v-455v-22v-7c0 -151 -103 -245 -245 -245c-101 0 -172 55 -214 102l47 52c44 -40 99 -74 167 -74c105 0 160 70 160 167v5v22v5c-31 -48 -81 -80 -160 -80c-148 0 -235 103 -235 268s90 267 235 267c79 0 129 -32 160 -80zM475 263
c0 110 -60 187 -155 187c-103 0 -165 -72 -165 -187s62 -188 165 -188c95 0 155 78 155 188zM260 605l115 150h105l-123 -150h-97z" />
    <glyph glyph-name="lacute.alt" 
d="M272 755h85v-680h215v-75h-215h-85v685h-175v70h175zM259 835l115 150h105l-123 -150h-97z" />
    <glyph glyph-name="ldot.alt" 
d="M232 755h85v-680h215v-75h-215h-85v685h-175v70h175zM445 351c0 47 38 85 85 85s85 -38 85 -85s-38 -85 -85 -85s-85 38 -85 85z" />
    <glyph glyph-name="lslash.alt" 
d="M155 350l117 67v268h-175v70h175h85v-289l97 56l30 -52l-127 -73v-322h215v-75h-215h-85v348l-87 -50z" />
    <glyph glyph-name="uni0233.alt" 
d="M578 525l-216 -527l60 -154v-44h-62h-239v75h208l-266 650h92l166 -423l165 423h92zM171 720h300v-70h-300v70z" />
    <glyph glyph-name="ycircumflex.alt" 
d="M578 525l-216 -527l60 -154v-44h-62h-239v75h208l-266 650h92l166 -423l165 423h92zM159 605l105 150h19h76h19l105 -150h-81l-81 102l-81 -102h-81z" />
    <glyph glyph-name="jcircumflex.alt" 
d="M185 455v70h250v-70v-385v-270h-80h-217v70h217v200v385h-170zM213 605l105 150h19h76h19l105 -150h-81l-81 102l-81 -102h-81z" />
    <glyph glyph-name="gbreve.alt2" 
d="M320 667c39 0 73 30 81 78h60c-7 -86 -68 -143 -141 -143s-134 57 -141 143h60c8 -48 42 -78 81 -78zM140 -30c0 -74 109 -95 180 -95s180 21 180 95s-109 95 -180 95s-180 -21 -180 -95zM210 360c0 -60 51 -95 110 -95s110 35 110 95s-51 95 -110 95s-110 -35 -110 -95z
M133 360c0 104 85 170 187 170s187 -66 187 -170c0 -90 -63 -151 -147 -166v-56c106 -10 220 -60 220 -168c0 -121 -146 -170 -260 -170s-260 49 -260 170c0 108 114 158 220 168v56c-83 15 -147 76 -147 166z" />
    <glyph glyph-name="gdotaccent.alt2" 
d="M140 -30c0 -74 109 -95 180 -95s180 21 180 95s-109 95 -180 95s-180 -21 -180 -95zM210 360c0 -60 51 -95 110 -95s110 35 110 95s-51 95 -110 95s-110 -35 -110 -95zM133 360c0 104 85 170 187 170s187 -66 187 -170c0 -90 -63 -151 -147 -166v-56
c106 -10 220 -60 220 -168c0 -121 -146 -170 -260 -170s-260 49 -260 170c0 108 114 158 220 168v56c-83 15 -147 76 -147 166zM242 703c0 44 34 80 78 80s80 -36 80 -80s-36 -78 -80 -78s-78 34 -78 78z" />
    <glyph glyph-name="gcaron.alt2" 
d="M140 -30c0 -74 109 -95 180 -95s180 21 180 95s-109 95 -180 95s-180 -21 -180 -95zM210 360c0 -60 51 -95 110 -95s110 35 110 95s-51 95 -110 95s-110 -35 -110 -95zM133 360c0 104 85 170 187 170s187 -66 187 -170c0 -90 -63 -151 -147 -166v-56
c106 -10 220 -60 220 -168c0 -121 -146 -170 -260 -170s-260 49 -260 170c0 108 114 158 220 168v56c-83 15 -147 76 -147 166zM158 755h81l81 -102l81 102h81l-105 -150h-19h-76h-19z" />
    <glyph glyph-name="uni01F5.alt2" 
d="M140 -30c0 -74 109 -95 180 -95s180 21 180 95s-109 95 -180 95s-180 -21 -180 -95zM210 360c0 -60 51 -95 110 -95s110 35 110 95s-51 95 -110 95s-110 -35 -110 -95zM133 360c0 104 85 170 187 170s187 -66 187 -170c0 -90 -63 -151 -147 -166v-56
c106 -10 220 -60 220 -168c0 -121 -146 -170 -260 -170s-260 49 -260 170c0 108 114 158 220 168v56c-83 15 -147 76 -147 166zM264 605l115 150h105l-123 -150h-97z" />
    <glyph glyph-name="racute.alt" 
d="M153 525h75l10 -120v-1c27 68 91 121 169 121h150v-75h-150c-89 0 -169 -82 -169 -219v-231h-85v525zM319 605l115 150h105l-123 -150h-97z" />
    <glyph glyph-name="rcaron.alt" 
d="M153 525h75l10 -120v-1c27 68 91 121 169 121h150v-75h-150c-89 0 -169 -82 -169 -219v-231h-85v525zM213 755h81l81 -102l81 102h81l-105 -150h-19h-76h-19z" />
    <glyph glyph-name="lcaron.alt" 
d="M272 755h85v-680h215v-75h-215h-85v685h-175v70h175zM426 565v190h80l-27 -190h-53z" />
    <glyph glyph-name="tcaron.alt" 
d="M83 525h120v150h85v-150h220v-70h-220v-380h220v-75h-220h-85v455h-120v70zM403 585v180h80l-27 -180h-53z" />
  </font>
</defs>
</svg>
